<svg version="1.2" xmlns="http://www.w3.org/2000/svg" viewBox="0 0 1175 459" width="1175" height="459">
	<title>YIOA LOGO DESIGN</title>
	<style>
		.s0 { fill: #ffc000 } 
		.s1 { fill: #ffc313 } 
		.s2 { fill: #b51a00 } 
		.s3 { fill: #eeba2b } 
		.s4 { fill: #fefdfd } 
		.s5 { fill: #ffac01 } 
	</style>
	<g id="Background">
		<path id="Path 0" class="s0" d="m55.6 3.5c-0.3 0.8-1.3 1.5-2.1 1.5-0.9 0-2.7 1.2-4 2.8-1.6 1.7-2.3 3.5-2 5q0.5 2.2-2 4.7c-1.6 1.6-2.1 2.6-1.3 2.8 1 0.3 1 0.9 0 3-0.9 2-2 2.7-4 2.7-1.5 0-3.4-0.8-4.2-1.8-1.2-1.5-2.4-1.8-6-1.4-3.4 0.3-4.8 0-5.8-1.2-1-1.3-1.6-1.4-3.7-0.4-1.4 0.7-3.2 2.9-4.1 4.8-0.9 1.9-1.4 4.1-1 4.8 0.3 0.6-0.3 1.8-1.4 2.5-1.5 0.9-1.8 1.9-1.4 4.2 0.5 2.3 0.2 3.4-1.3 4.5-1.1 0.8-2.3 2.5-2.7 3.8-0.3 1.2-0.2 2.2 0.4 2.2 0.6 0 1 1.1 1 2.5 0 1.4-1.1 3.5-2.5 4.8-1.3 1.2-2.4 3.2-2.5 4.5 0 1.2 0.4 2.4 1 2.7 0.6 0.3 0.9 7.9 0.7 20.4-0.1 11-0.5 20.3-1 20.8-0.4 0.4-0.8 1.7-0.8 2.8 0 1.1 0.9 2.7 2.1 3.5 1.1 0.8 2.4 3.2 2.8 5.3 0.5 2.6 0.3 4-0.5 4.5-0.7 0.4-1 1.7-0.8 3 0.3 1.2 1.2 2.2 2 2.2 0.8 0 1.7 0.9 2 2 0.3 1.1 0.3 2.8 0 3.8-0.3 0.9 0.3 2.6 1.4 3.7 1.1 1.1 1.7 2.7 1.4 3.5-0.3 1 0.4 1.7 1.9 2.2 1.9 0.6 2.2 1.1 1.5 3.2-0.5 2-0.3 2.6 0.8 2.6 0.8 0 2.1 1.2 2.7 2.8 0.7 1.5 1.8 3.3 2.5 4 0.7 0.6 1.3 2.1 1.3 3.2 0 1.1 0.7 2.2 1.5 2.5 0.8 0.3 1.5 1.3 1.5 2.3-0.1 0.9 0.6 2.4 1.5 3.2 0.9 0.8 1.6 2.3 1.5 3.3 0 0.9-0.4 1.7-1 1.7-0.6 0-0.8 0.5-0.5 1 0.3 0.5 1.5 1 2.7 1 2.1 0 2.2 0.3 1.5 3-0.6 2.6-0.2 3.4 2.7 6.3 2.2 2 3.2 3.7 2.8 4.7q-0.7 1.5 0.6 0.8c0.6-0.5 1.9-0.1 2.7 0.7 0.8 0.8 1.5 2.1 1.5 2.8-0.1 0.6 0.6 1.9 1.5 2.7 0.9 0.8 1.5 2.2 1.5 3 0 0.8 0.6 2.2 1.5 3 1.2 1.2 1.3 1.8 0.3 3-0.7 0.8-0.9 1.2-0.5 0.8 0.4-0.5 1.4-0.1 2.2 0.7 0.8 0.8 1.3 2.2 1 3-0.3 0.8 0.4 2.6 1.5 4 1.1 1.4 3.6 3.2 5.5 4 2.1 0.9 3.5 2.2 3.5 3.3-0.1 0.9 0.8 2.6 1.9 3.7 1.2 1.1 1.9 2.2 1.6 2.5-0.2 0.3 1.1 2.4 3 4.8 1.9 2.3 4.2 4.2 5 4.2 0.8 0 4 2.5 7 5.5 3 3 5.5 6.1 5.5 6.8 0 0.6 3.4 4.6 7.6 8.7 4.3 4.1 7.9 6.9 8.1 6.3 0.2-1 1.1-0.9 3.4 0.5 1.7 0.9 3.5 2.8 4.1 4.2q0.9 2.5 1.6 1.3c0.5-0.9 1.5-0.7 3.9 1 1.8 1.2 3.5 3 3.8 4 0.4 1.2 1.2 1.6 3 1.2 1.6-0.3 2.5 0 2.6 0.8 0.1 0.6 0.1 1.5 0 2 0 0.4 1.1 1.6 2.6 2.7 1.6 1.2 3.4 2.1 4 2 0.7 0 1.3-0.5 1.3-1 0-0.6 2.5-0.9 6.1-0.7 5.9 0.2 6.3 0.1 8-2.8 1-1.6 2.4-4.1 3.1-5.4 1-2 1-2.5 0-2.8-0.6-0.2-1.2-1.1-1.2-2-0.1-1 0.6-2.5 1.5-3.3 0.9-0.8 1.6-3 1.5-4.7 0-2.5 0.7-3.8 2.7-5.2 2.4-1.6 2.6-2.1 1.5-3.5-1-1.3-0.8-2 1.3-4.1 1.4-1.4 2.1-2.7 1.5-3-0.6-0.3-0.8-1.2-0.5-2 0.3-0.8 1.2-1.5 2-1.5 0.8 0 1.7-0.7 2-1.5 0.3-0.8 0.1-2.2-0.5-3-0.7-1.1-0.4-2.1 1.5-4 2-2 2.4-3.2 2-6-0.4-2.8-0.1-3.7 1.7-4.7 1.8-1.1 2-1.9 1.5-5.5-0.5-3-0.2-5.1 0.8-7 0.8-1.6 1.5-3.5 1.4-4.3 0-0.8 0.7-2.2 1.6-3 0.9-0.8 1.6-2.5 1.5-3.7 0-1.4 1.1-3.1 2.7-4.3 1.6-1.1 2.2-2 1.5-2-0.6 0-1.2-0.9-1.2-2 0-1.2 1-2.4 2.5-3 1.4-0.5 2.5-1.7 2.5-2.5 0-0.8-0.3-1.5-0.8-1.5-0.4 0-0.8-3.1-1-7-0.1-4.2 0.2-7 0.8-7 0.6 0 1-0.9 1-2 0-1.1-1.1-2.7-2.5-3.5-1.7-1-2.3-2.1-2-3.5 0.4-1.5 0-2-1.5-2-1.1 0-2-0.6-2-1.2 0.1-0.7-0.6-2-1.5-2.8-0.9-0.8-1.6-2.2-1.6-3 0.1-0.8-3.9-5.3-8.7-10-4.8-4.7-9.7-10-11-11.7-1.2-1.8-2-4-1.7-4.8 0.3-0.9-0.1-1.5-1-1.5-0.8 0-2.9-1.5-4.5-3.3-1.7-1.7-3-3.8-3-4.5 0-0.6-0.6-1.5-1.2-2-0.9-0.5-1-0.3-0.3 0.8 0.8 1.3 0.7 1.3-1.1 0-1-0.8-3.6-3.2-5.7-5.2-2.3-2.4-3.4-4.3-3-5 0.6-0.9 0.3-1-1-0.5-0.9 0.4-1.7 0.4-1.7 0 0-0.5-1-0.9-2.2-1-1.3-0.2-3.3-1-4.6-1.8-1.2-0.8-2-2-1.7-2.5 0.3-0.6-0.7-0.8-2.8-0.4-2 0.4-3.5 0.2-4-0.5-0.5-0.8-1.4-0.8-3.5 0.1-1.5 0.7-3.7 2.3-5 3.5-1.2 1.3-2.6 2.3-3.2 2.3-0.6 0-1 0.9-1 2 0 1.1 0.6 2.3 1.4 2.8 0.7 0.4 1.8 1.7 2.5 3 0.6 1.2 1.1 3.1 1.1 4.2 0 1.1-0.6 2-1.3 2-0.6-0.1 0 1.1 1.5 2.5 1.6 1.4 2.8 3.4 2.8 4.5 0 1.1 0.4 2.2 1 2.5 0.6 0.3 0.8 1.3 0.7 2.3-0.2 0.9 0.5 3.3 1.7 5.2 1.1 1.9 2.8 4.1 3.8 4.8 1.3 0.8 1.6 1.8 1 3.3-0.4 1.3-0.3 2 0.3 1.9 0.6-0.1 1.6-0.2 2.2-0.1 0.8 0.1 1.1 1 0.8 2.6-0.4 1.9 0 2.7 1.6 3.3 1.2 0.4 3 2.1 4 3.7 1 1.6 1.9 3.8 1.9 4.8 0 0.9-0.6 1.9-1.3 2.1-0.9 0.4-0.9 0.6 0.1 1.3 0.9 0.5 1.1 1.7 0.8 3.1-0.5 1.8-1.1 2.1-3.4 1.7-1.5-0.2-6-0.6-10-0.7-3.9-0.2-7.2-0.5-7.2-0.8 0-0.3-1.1-0.6-2.5-0.7-1.4-0.2-3.5-1.4-4.8-2.7-1.2-1.4-3-3.3-3.9-4.3-1-1-2.9-2.9-4.3-4.3-1.5-1.4-3.3-3.6-4-5-0.8-1.4-1.1-2.8-0.7-3.3 0.4-0.4-0.4-1.8-1.8-3.2-1.4-1.4-2.9-2.5-3.5-2.5-0.6 0-2-1.3-3.3-3-1.2-1.6-2-3.7-1.7-4.5 0.3-0.9-0.1-1.5-1-1.5-0.8 0-1.7 0.5-2 1-0.3 0.5-1.5 1-2.8 1-1.8 0-3.5-2.2-8.7-11.3-3.6-6.1-7.9-12.8-9.7-14.7-1.7-1.9-4.7-6.9-6.6-11-1.9-4.1-4.3-10-5.3-13-1-3-2.4-6.2-3.1-7-0.7-0.8-1.3-2.3-1.3-3.2 0-1-0.4-2-1-2.3-0.6-0.3-1-2.4-1-4.8 0-2.3 0.7-6.2 1.5-8.7 0.9-2.5 2.2-6 3-7.8 0.8-1.7 2.1-3.2 2.7-3.2 1 0 1.1 1 0.6 3.7-0.4 2.1-1 6.7-1.4 10.3-0.4 4.5-0.1 8.4 0.9 12.5 0.9 3.3 3.3 8.9 5.4 12.4 3.1 5.2 3.9 6 4.4 4.5 0.4-1 1.4-5.3 2.3-9.4 0.8-4.1 2.2-11.3 3.1-16 0.9-4.7 2.5-11.2 3.5-14.5 1.1-3.3 2-7 2-8.3 0-1.3 0.5-2.1 1.2-1.8 0.8 0.2 1.2 1.8 1 4.5-0.2 3.4 0.1 4.1 1.5 3.8 1.4-0.2 1.9-1.3 2-4.5 0.2-2.3-0.1-4.2-0.7-4.2-0.6 0-0.8-1.4-0.4-3.3 0.3-1.7 1.6-4 2.7-5 2-1.6 2.1-1.8 0.5-3-0.9-0.6-2.2-2.8-2.9-4.7-0.9-2.6-0.9-3.6-0.1-3.8 0.7-0.1 1.2-1.1 1.2-2.2 0-1.1-0.6-2-1.3-2-0.6 0-2.2-1.3-3.5-3-1.2-1.6-2.2-3.5-2.2-4 0-0.5-0.6-1-1.4-1-0.8 0-1.7 0.7-2 1.5z"/>
		<path id="Path 1" class="s1" d="m59 3c0 0.5 1 2.4 2.3 4 1.2 1.7 2.8 3 3.5 3 0.6 0 1.2-0.5 1.2-1 0-0.5-0.7-1.7-1.5-2.5-0.8-0.8-1.5-2.2-1.5-3 0-0.8-0.9-1.5-2-1.5-1.1 0-2 0.5-2 1z"/>
		<path id="Path 2" class="s2" d="m503.8 512.5l0.2 8.5c4.5-4.1 5-5.5 5-9.5 0-2.8-0.5-5.6-1.2-6.3-0.7-0.7-2-1.2-2.8-1.2-1.2 0-1.5 1.5-1.3 8.5z"/>
		<path id="Path 3" class="s2" d="m294 511.8c0 4.2 0.2 8 0.5 8.4 0.3 0.5 1.4-0.1 2.5-1.2 1.5-1.5 2-3.3 2-7.3 0-2.9-0.5-5.8-1.2-6.5-0.7-0.7-1.9-1.2-2.5-1.2-0.9 0-1.3 2.2-1.3 7.7z"/>
		<path id="Path 4" class="s2" d="m735 491c0 1.8-0.6 3.2-1.5 3.5-1.1 0.4-1.5 2.1-1.5 7 0 4.9 0.4 6.6 1.5 7 0.8 0.3 1.5 1.6 1.5 3 0 1.5 1.4 3.9 3.5 6 1.9 1.9 4.4 3.5 5.5 3.5 1.1 0 2-0.2 2-0.5 0-0.3-1.4-2-3-3.8-1.7-1.7-3-3.9-3-4.7 0.1-0.8-0.6-2.2-1.5-3-1.2-1.2-1.6-3.6-1.5-11.3 0-5.8-0.4-9.7-1-9.7-0.5 0-1 1.3-1 3z"/>
		<path id="Path 5" class="s2" d="m1038.6 488.8c-0.3 1.2-1.3 2.2-2.1 2.2-1.1 0-1.5 1.1-1.5 3.7 0 2.1-0.7 4.5-1.5 5.3-1.2 1.3-1.2 1.9 0.1 4.5 0.8 1.7 1.4 4.5 1.4 6.2 0 2.5 0.9 4.2 3.5 6.8 1.9 1.9 4.4 3.5 5.5 3.5 1.1 0 2-0.3 2-0.8-0.1-0.4-1.4-1.9-3-3.5-1.7-1.5-3-3.7-3-5 0.1-1.2-0.6-2.9-1.5-3.7-1.2-1.1-1.6-3.3-1.5-8 0-4.4 0.5-7 1.6-8 0.8-0.8 1.3-2.4 1.1-3.5-0.5-1.9-0.5-1.9-1.1 0.2z"/>
		<path id="Path 6" class="s2" d="m682 490c0 3.7 0.5 5.5 2 7 1.1 1.1 2.6 2 3.3 2 0.6-0.1 1.9 0.6 2.7 1.5 0.8 0.9 2.5 1.6 3.8 1.5 1.2 0 2.6 0.9 3.2 2 0.6 1.3 1.6 1.8 2.8 1.5 1-0.3 2.8 0.5 4.5 2.2 2.3 2.4 2.7 3.6 2.7 8.1 0 3.1 0.4 5 1 4.7 0.5-0.3 1-1.3 1-2.3-0.1-0.9 0.6-2.4 1.5-3.2 0.9-0.8 1.6-2.1 1.5-2.8 0-0.6-0.9-2.1-2-3.2-1.1-1.1-2-2.7-2-3.5 0-0.8-0.9-1.5-2-1.5-1.1 0-2.5-0.9-3-2q-1-2-3-1.5c-1.3 0.3-2.4-0.2-3.3-1.5-0.6-1.2-1.9-2-2.8-1.8-0.9 0.2-3.5-1.5-5.7-3.7-2.3-2.3-4.1-5-4.2-6.3 0-1.2-0.5-2.2-1-2.2-0.5 0-1 2.3-1 5z"/>
		<path id="Path 7" class="s2" d="m998 482.8c-0.1 0.4 0.6 1.4 1.5 2.2 0.9 0.8 1.6 2.8 1.6 4.5-0.1 1.9-1.2 4.2-3.1 6.2-2.7 3-2.8 3.3-1 3.3 1.1 0 2-0.5 2-1 0-0.5 0.9-1.2 2-1.5 1.4-0.3 2-1.3 2-3.3 0-1.5 0.5-3.3 1.2-4 0.9-0.9 0.9-1.2 0-1.2-0.7 0-1.2-1.3-1.2-3 0-2.5-0.4-3-2.5-3-1.4 0-2.5 0.3-2.5 0.7z"/>
		<path id="Path 8" class="s2" d="m539.2 483.7c1 1 1.8 3.4 1.8 5.6 0 2.6-0.7 4.5-2.6 6.5-1.4 1.5-2.1 2.8-1.5 3 0.6 0.1 2.2-0.6 3.6-1.5 1.5-1.2 2.4-2.8 2.5-4.5 0-1.7 0.7-3.2 1.7-3.7 1.7-0.8 1.7-0.8 0-1.5-1-0.3-1.7-1.6-1.7-3.1 0-2.1-0.5-2.5-2.8-2.5-2.6-0.1-2.6 0-1 1.7z"/>
		<path id="Path 9" class="s2" d="m147.3 485.5c2.1 2 3.5 4.1 3.2 5-0.3 0.9 0.4 1.9 1.5 2.5 1.8 0.9 2 1.9 1.9 10.8-0.1 5.3 0.2 9.9 0.7 10.2 0.5 0.3 1.1-0.4 1.3-1.5 0.2-1.1 1-2.6 1.7-3.3 0.9-0.7 1.4-3.5 1.4-7.5 0-5-0.4-6.5-2-8-1.1-0.9-1.8-2.4-1.5-3.2 0.3-0.9-1-2.9-3.3-5-2.1-1.9-4.8-3.5-6.2-3.5-2.4-0.1-2.4 0.1 1.2 3.5z"/>
		<path id="Path 10" class="s2" d="m1069.6 481.8c-0.2 0.4 0.6 1.7 2 2.9 2.2 2.1 2.5 2.2 3.1 0.5 0.4-1.1-0.1-2.1-1.3-3-1-0.7-2.2-1.2-2.6-1.2-0.4 0-0.9 0.3-1.2 0.7z"/>
		<path id="Path 11" class="s2" d="m291.5 481.8c-0.2 0.4 0.5 1.5 1.5 2.4 1.1 1 2.2 1.8 2.5 1.8 0.3 0 0.4-0.8 0.4-1.9-0.1-1-1-2.1-2.1-2.4-1.1-0.3-2.1-0.2-2.3 0.1z"/>
		<path id="Path 12" class="s2" d="m959 479.2c0.3 0.2 1.7 1.4 3.3 2.8l2.8 2.5c-0.1-5.2-0.5-5.5-3.3-5.5-1.8 0-3.1 0.1-2.8 0.2z"/>
		<path id="Path 13" class="s2" d="m880.2 480.3c1 0.7 1.7 1.8 1.8 2.4 0 0.7 1.4 2.5 3 4 1.7 1.6 3 3.5 3 4.3 0 0.8 0.9 2.1 2 2.7 1.1 0.7 1.8 2 1.5 2.8-0.3 0.8 0.8 2.7 2.5 4.2 1.6 1.6 3 3.7 3 4.8 0 1.1 1.2 3 2.5 4.2l2.5 2.3c0-4.7-0.5-6.2-1-6.5-0.6-0.3-1-1.4-1-2.5 0-1.1-0.9-2.5-2-3-1.2-0.6-2-2-2-3.5 0-1.4-0.6-2.7-1.3-2.8-0.6-0.2-2.2-2.5-3.5-5-1.2-2.6-2.7-4.7-3.2-4.7-0.5 0-1-1.1-1-2.5 0-2.3-0.4-2.5-4.3-2.5-3.6 0.1-3.9 0.2-2.5 1.3z"/>
		<path id="Path 14" class="s2" d="m758.9 480.4c1.9 0.6 5.2 2.9 7.3 5.1 2.1 2.2 3.8 4.8 3.8 5.8 0 0.9 0.6 1.8 1.3 2 0.7 0.2 1.2 2.2 1.3 4.8 0 2.5 0.6 4.5 1.2 4.7 0.7 0.1 1.2 1.8 1.2 3.7 0 1.9-0.5 3.5-1 3.5-0.5 0-1.2 1-1.4 2.3-0.3 1.2-0.1 3.1 0.3 4.2 0.7 1.8 0.9 1.7 1.5-1 0.4-1.7 1.3-3.3 1.9-3.7 0.8-0.5 1.1-3.8 1-10.3l-0.3-9.5c-8-8.1-11.5-11.1-12.9-11.8-1.4-0.7-3.9-1.2-5.6-1.1l-3 0.1z"/>
		<path id="Path 15" class="s2" d="m641 481c0 1.1 0.3 2.1 0.8 2.3 0.4 0.2 1.8-0.7 3.2-2l2.5-2.4c-5.8 0.1-6.5 0.5-6.5 2.1z"/>
		<path id="Path 16" class="s2" d="m394 481.3c0 1.4 1.3 3.1 3.5 4.7 2 1.4 3.6 3.3 3.5 4.2 0 1 1.4 3.3 3 5 1.7 1.8 3 4.3 3 5.5 0 1.4 0.6 2.3 1.5 2.3 0.9 0 1.5 0.9 1.5 2.5 0 1.4 0.5 2.5 1 2.5 0.5 0 1.2 0.9 1.5 2 0.3 1.1 1 2 1.5 2 0.5 0 1-1.7 1-3.8 0-2.5-0.6-4.3-2-5.5-1.1-0.9-2-2.4-2-3.2 0-0.8-0.5-1.5-1-1.5-0.5 0-1-0.6-1-1.3 0-0.6-0.9-2-2-3-1.3-1.1-1.7-2.2-1.3-3.2 0.6-1.1 0.1-2.1-1.4-3-1.3-0.8-2.3-2.2-2.3-3 0-0.8-0.5-1.5-1-1.5-0.5 0-1-0.9-1-2 0-1.6-0.7-2-3-2-2.4 0-3 0.4-3 2.2z"/>
		<path id="Path 17" class="s2" d="m338 480c0 0.5 0.7 1.7 1.5 2.5 0.8 0.8 1.5 1.8 1.5 2.3 0 0.4 1.3 1.8 2.9 3.2 1.8 1.5 3 3.5 3.1 5 0 1.4 0.9 3.1 2 3.8 1.1 0.6 2 1.9 2 2.7 0 0.8 1.3 3 3 4.8 1.6 1.7 3 4.2 3 5.5v2.2l4.7-4.5c-4.4-4.3-5.7-6.4-5.7-7.5 0-1.1-0.9-2.5-2-3-1.1-0.5-2-1.9-2-3 0-1.1-1.4-3.3-3-5-1.6-1.7-3-3.8-3-4.8 0.1-0.9-0.7-2.5-1.7-3.4-1-1-2.8-1.8-4-1.8-1.3 0-2.3 0.5-2.3 1z"/>
		<path id="Path 18" class="s2" d="m166 480c0 0.5 0.7 1.2 1.5 1.5 1.2 0.4 1.5 3.1 1.5 16 0 12.6 0.3 16.3 1.8 19.5 0.9 2.2 2.6 4.3 3.7 4.6 1.1 0.3 2.4 0.1 3-0.4q1-1-1.3-2.4c-1.4-0.8-2.2-2.3-2.2-4 0-1.6-0.7-3.5-1.5-4.3-1.2-1.2-1.5-4.3-1.5-15 0-11.1 0.3-13.6 1.5-14 0.8-0.3 1.5-1 1.5-1.5 0-0.5-1.8-1-4-1-2.2 0-4 0.5-4 1z"/>
		<path id="Path 19" class="s3" d="m194.5 444.6c-0.4 0.4-0.8 2.2-0.7 4.1 0.2 3.2 0.3 3.3 4.5 3.2 3.9-0.1 4-0.1 1.4-1-1.8-0.6-3-1.9-3.5-4-0.4-1.7-1.2-2.7-1.7-2.3z"/>
		<path id="Path 20" class="s1" d="m198.2 438.3c-0.6 0.6-1.4 2.5-1.9 4.1-0.7 2.8-0.7 2.9 1.2 1.9 1.1-0.5 2.3-1.8 2.8-2.7 0.4-0.9 0.7-2.3 0.7-3.1 0-0.8-0.4-1.5-0.9-1.5-0.5 0-1.3 0.6-1.9 1.2z"/>
		<path id="Path 21" class="s1" d="m274.6 434.6c-0.5 1-0.6 3.5-0.2 5.4 0.3 1.9 1.2 3.8 1.9 4.2 0.6 0.4 1.5 0.8 1.9 0.8 0.5 0 0.8-0.8 0.8-1.8 0-0.9-0.5-3.3-1.1-5.2-0.7-1.9-1.5-3.9-1.8-4.4-0.3-0.5-1-0.1-1.5 1z"/>
		<path id="Path 22" class="s1" d="m200.2 429.8c-0.8 2.5-0.8 4-0.1 4.7q1 1 2.5-1c0.8-1.1 1.4-3.2 1.4-4.8 0-1.6-0.5-2.7-1.4-2.7-0.7 0-1.8 1.7-2.4 3.7z"/>
		<path id="Path 23" class="s1" d="m203.5 416.3c-0.9 1.2-1.5 3.1-1.3 4.1 0.2 1.1 0.9 2.1 1.6 2.3 0.6 0.2 1.7-1.2 2.2-3 0.6-1.7 1-3.8 1-4.5 0-0.6-0.4-1.2-1-1.2-0.5 0-1.7 1-2.5 2.2z"/>
		<path id="Path 24" class="s3" d="m276.4 423.5c0 6 0.1 8.3 0.3 5 0.2-3.3 0.2-8.3 0-11-0.2-2.8-0.3 0-0.3 6z"/>
		<path id="Path 25" class="s1" d="m271.6 397.6c-0.5 1-0.6 3.9-0.3 6.4 0.3 2.5 1.1 5 1.7 5.5q1 1 2 0c0.7-0.7 0.7-2.8-0.1-6.5-0.6-3-1.4-5.9-1.8-6.4-0.3-0.5-1-0.1-1.5 1z"/>
		<path id="Path 26" class="s3" d="m272.7 388.7c0.3 4.3 0.7 8 1 8.3 0.2 0.3 0.4-3 0.4-7.2 0.1-4.3-0.4-8-0.9-8.3-0.7-0.5-0.9 1.8-0.5 7.2z"/>
		<path id="Path 27" class="s1" d="m216.1 381.2c-0.7 1.3-1.2 2.9-1 3.6 0.3 1 0.7 1 2.1 0 0.9-0.7 1.7-2.2 1.8-3.2 0.1-1-0.3-2.1-0.7-2.3-0.5-0.2-1.5 0.7-2.2 1.9z"/>
		<path id="Path 28" class="s1" d="m268 375.5c0 2.5 0.4 5.4 1 6.5 0.6 1.1 1.4 2 2 2 0.6 0 1-1.5 1-3.3 0-1.7-0.4-4.7-1-6.5-0.5-1.7-1.4-3.2-2-3.2-0.6 0-1 2-1 4.5z"/>
		<path id="Path 29" class="s1" d="m222.6 362.8c-0.9 0.9-1.5 2.8-1.4 4.2 0.2 1.4-0.5 3.4-1.5 4.5-0.9 1.1-1.7 2.8-1.7 3.7 0 1.5 0.4 1.6 2 0.8 1.1-0.5 2.3-2.2 2.6-3.8 0.3-1.5 1.2-4.2 2-6 0.8-1.7 1.4-3.7 1.4-4.2 0-0.5-0.4-1-0.9-1-0.4 0-1.6 0.8-2.5 1.7z"/>
		<path id="Path 30" class="s1" d="m264.7 358.9c-0.4 0.6 0.1 3.3 1.1 6.1 0.9 2.7 2.1 4.6 2.6 4.2 0.5-0.4 0.6-2.5 0.3-4.7-0.4-2.2-1.2-4.6-1.9-5.3-1-1-1.6-1.1-2.1-0.3z"/>
		<path id="Path 31" class="s1" d="m261.6 348.8c-0.3 0.4 0.1 1.6 0.8 2.7 0.8 1.1 1.7 1.8 2.1 1.5 0.3-0.3 0.4-1.5 0.1-2.8-0.3-1.2-1-2.2-1.6-2.2-0.5 0-1.1 0.3-1.4 0.7z"/>
		<path id="Path 32" class="s1" d="m232 341.2c-0.8 0.7-1.3 1.8-1.2 2.5 0.1 0.7 1 1.2 1.9 1 1-0.1 1.9-1.2 2-2.5 0.1-1.2-0.1-2.2-0.6-2.2-0.4 0-1.3 0.5-2.1 1.2z"/>
		<path id="Path 33" class="s1" d="m258.1 339.2c-0.1 0.7 0.5 2 1.4 2.8 0.8 0.8 1.9 1.1 2.3 0.7 0.4-0.4 0.2-1.5-0.3-2.4-0.6-0.9-1.5-1.8-2.1-2-0.7-0.3-1.2 0.1-1.3 0.9z"/>
		<path id="Path 34" class="s1" d="m255.6 330.8c-0.3 0.4 0 1.6 0.7 2.6 0.7 1 1.8 1.6 2.5 1.3 0.8-0.5 0.9-1.3 0.2-2.7-0.6-1.1-1.4-2-2-2-0.5 0-1.1 0.3-1.4 0.7z"/>
		<path id="Path 35" class="s3" d="m237.3 329c-1.1 2.5-2.4 5.4-2.8 6.5-0.6 1.8-0.5 1.9 1 0.5 0.9-0.8 1.6-2.2 1.5-3 0-0.8 0.7-2.5 1.5-3.8 0.8-1.2 1.4-2.8 1.2-3.5-0.2-0.6-1.3 0.8-2.4 3.3z"/>
		<path id="Path 36" class="s1" d="m241 322.2c-0.8 0.7-1.3 2-1.2 3 0.1 1-0.6 2.9-1.6 4.3q-1.7 2.6-0.7 3.6c0.7 0.7 1.6 0.3 2.8-1.3 0.9-1.3 1.7-3.1 1.7-4 0-1 0.4-2 1-2.3 0.6-0.3 1-1.4 1-2.5 0-1.1-0.4-2-0.8-2-0.4 0-1.4 0.5-2.2 1.2z"/>
		<path id="Path 37" class="s0" d="m243.4 317.9c-0.2 0.9-0.2 2.5 0.2 3.6 0.4 1.1 0.1 3.1-0.6 4.5-0.6 1.4-1.8 3.6-2.4 5-0.7 1.4-1.8 2.4-2.4 2.3-0.8-0.2-1 0.5-0.5 2.3 0.7 2 0.4 2.6-1.2 3-1.4 0.4-1.9 1.3-1.8 3 0.2 1.8-0.4 2.7-2.5 3.5-1.5 0.6-2.1 1.3-1.5 1.5 0.7 0.2 1.3 1.1 1.3 1.9 0 0.8-1.2 2-2.8 2.6-2.1 0.8-2.4 1.2-1.2 1.9 0.9 0.5 1.2 1.4 0.7 2.4-0.4 0.9-1.6 1.6-2.7 1.6q-2 0-2 2c0 1.1 0.4 2 1 2 0.6 0 1 0.6 1 1.3 0 0.6-0.7 2.6-1.5 4.2-0.9 1.7-1.5 3.8-1.5 4.8 0 0.9-1.2 2.8-2.8 4.2-2.1 2-2.4 2.8-1.5 3.8 0.6 0.6 0.8 2 0.5 3.1-0.4 1-1.5 2.3-2.5 2.7-1.2 0.6-1.5 1.7-1.2 3.4 0.4 1.8 0 2.8-1.5 3.5-1.5 0.8-1.9 1.7-1.5 4 0.4 2.3 0 3.2-1.5 4-1.5 0.8-1.9 1.7-1.5 4 0.4 2.5 0.2 3-1.5 3-1.1 0-2.2 0.7-2.5 1.5-0.3 0.8-0.5 2.4-0.5 3.5 0 1.1 0.5 2.1 1.1 2.3 0.7 0.1 0.9 1.4 0.5 3.5-0.3 1.7-1.6 4.2-2.9 5.3q-2.2 2.2-1 2.5c0.7 0.2 1.3 1.8 1.3 3.4q0 3-2.8 5.5c-1.5 1.4-2.1 2.6-1.5 2.5 0.7 0 1.3 0.9 1.3 2 0 1.1-1.1 3.1-2.5 4.5-1.6 1.6-2.3 3.2-2 4.5 0.3 1.1 0.8 2 1.2 2 0.5 0 18.4 0.1 39.9 0.3 30.3 0.1 39.4-0.1 40.3-1 0.6-0.7 1.1-2 1.1-2.8 0-0.8-0.8-1.7-1.8-2-0.9-0.2-2-1.4-2.4-2.7-0.4-1.3-0.8-3.5-0.8-5 0-1.6 0.4-3 1-3.3 0.6-0.3 1-5.1 1-11.2 0.1-9.9-0.1-10.9-2-12.3-1.6-1.1-2.3-2.9-2.7-6.5-0.3-3 0-5.8 0.7-7 0.7-1.1 1-4 0.8-6.5-0.3-2.9-1.3-5.4-2.8-7-2-2.1-2.2-3.3-1.9-8.1 0.2-3.2 0.2-5.5-0.1-5.3-0.3 0.1-1.3-2-2.3-4.9-1.2-3.5-1.4-5.5-0.7-6.2 0.6-0.5 1-1.7 1-2.5-0.1-0.8-1.3-2.5-2.8-3.8-2.1-1.9-2.4-2.6-1.4-3.5 0.7-0.7 1.2-2 1.2-2.9 0-1-1.1-2.5-2.5-3.3-1.4-0.8-2.5-2.2-2.5-3 0-0.8 0.4-1.5 1-1.5 0.6 0 1-0.7 1-1.5 0-0.8-0.7-1.5-1.5-1.5-0.8 0-1.9-0.8-2.5-1.7-0.6-1.2-0.6-2.2 0.1-2.8q1-1-1.6-2.7c-1.4-1-2.5-2.7-2.5-3.8 0-1.1-0.4-2-1-2-0.6 0-1.4-1-1.9-2.2-0.4-1.3-1.8-2.6-3-2.9-1.6-0.5-2.4-0.2-2.7 1z"/>
		<path id="Path 38" class="s1" d="m245.5 314.4c-1.6 1.3-2.6 2.8-2.2 3.3 0.4 0.4 0.7 0.2 0.7-0.4 0-0.9 0.7-1.1 2.1-0.5 1.2 0.4 2.6 1.7 3 3 0.5 1.2 1.3 2.2 1.9 2.2 0.6 0 1 0.9 1 2 0 1.1 1 2.7 2.3 3.5 1.7 1.2 2.3 1.2 2.5 0.3 0.2-0.7-0.6-2.2-1.7-3.3-1.1-1.1-2.1-2.5-2.1-3 0-0.5-0.9-2.9-2-5.2-1.1-2.4-2.1-4.3-2.2-4.3-0.2 0-1.7 1.1-3.3 2.4z"/>
		<path id="Path 39" class="s3" d="m245.6 312.1c-1.1 0.5-1.9 1.4-1.8 1.9 0.1 0.6 1.3 0.3 2.7-0.5 2.4-1.4 2.6-1.4 4 1.7 1.3 3.1 1.4 3.1 1.5 0.8 0-1.4-0.5-3.1-1.2-3.8-0.7-0.7-1.7-1.2-2.3-1.2-0.6 0-1.9 0.5-2.9 1.1z"/>
		<path id="Path 40" class="s3" d="m180.6 166.5c-0.5 0.4-0.9 3.1-0.8 5.9 0.1 3.5 0.5 4.8 1.2 4.1 0.6-0.5 0.9-3.2 0.8-5.9-0.2-2.9-0.7-4.6-1.2-4.1z"/>
		<path id="Path 41" class="s3" d="m62 55.3c0 3.7 0.3 4.6 1.5 4.2 0.8-0.3 2.2 0.1 3 0.8 0.9 0.7 1.6 2.7 1.6 4.7-0.1 2.6 0.2 3.1 0.9 2 0.5-0.8 0.9-4.2 0.9-7.5 0-3.3-0.2-5.4-0.5-4.7-0.2 0.6-1.3 1.2-2.4 1.2-1.2 0-2.6-1.2-3.5-2.7l-1.4-2.8z"/>
		<path id="Path 42" class="s3" d="m60.8 53.3c-0.5 0.9-0.8 2.9-0.8 4.5 0 1.8 0.3 2.4 1 1.7 0.6-0.5 0.9-2.6 0.8-4.5-0.2-2.6-0.5-3-1-1.7z"/>
		<path id="Path 43" class="s3" d="m414 49.7c-0.7 0.2-1.3 1-1.2 1.6 0.2 0.7 1.4 2.2 2.7 3.4 1.4 1.3 3.2 4.2 4 6.5 1.4 3.8 1.5 25.7 1.5 183.8 0 157.4-0.2 180.1-1.5 184.3-1.2 3.6-2.1 4.8-4 5.2-1.9 0.4-2.5 1.1-2.5 3v2.5h30c0-4.3-0.6-5.1-2.3-5.4-1.3-0.3-2.9-1.9-4-4-1.6-3.4-1.7-14.4-1.7-186.9v-183.2c6.2-6.6 8-9 8-9.5 0-0.5-0.7-1.2-1.5-1.5-0.8-0.3-7-0.5-13.8-0.4-6.7 0-12.9 0.3-13.7 0.6z"/>
		<path id="Path 44" class="s3" d="m1044.4 49.8c-0.3 1.5-1.2 4.3-1.9 6.2-0.8 1.9-1.6 5.4-1.9 7.8-0.4 2.3-0.9 4.4-1.4 4.6-0.4 0.2-1 2.4-1.5 5-0.4 2.5-1.2 4.8-1.7 5.1-0.6 0.3-1 1.7-1 3.3 0 1.5-0.6 3.6-1.5 4.7-0.8 1.1-1.4 3.8-1.5 6 0 2.2-0.6 4.9-1.5 6-0.8 1.1-1.5 3.5-1.5 5.3 0 1.7-0.7 3.9-1.5 4.7-0.8 0.8-1.5 2.3-1.5 3.3 0 0.9-0.6 3.1-1.5 4.7-0.8 1.6-1.5 3.9-1.5 5 0 1.1-0.8 3.8-1.9 6-1 2.2-2.1 5.9-2.5 8.3-0.3 2.3-0.9 4.4-1.4 4.6-0.4 0.2-1 2.4-1.5 5-0.4 2.5-1.2 4.8-1.7 5.1-0.6 0.3-1 1.7-1 3.3-0.1 1.5-0.7 3.8-1.5 5.2-0.8 1.4-1.4 4.1-1.4 6-0.1 1.9-0.7 4.4-1.6 5.5-0.8 1.1-1.4 3.4-1.5 5 0 1.6-0.6 3.9-1.5 5-0.8 1.1-1.4 3.1-1.5 4.5 0 1.4-0.6 3.4-1.5 4.5-0.8 1.1-1.5 3.5-1.5 5.3 0 1.7-0.3 3.4-0.8 3.6-0.4 0.2-1.1 2.1-1.5 4.2-0.5 2.2-1.2 4.4-1.6 4.9-0.4 0.5-1.6 3.7-2.5 7-1 3.3-2.1 6.9-2.6 8-0.5 1.1-1.1 3.9-1.4 6.3-0.3 2.3-1.1 4.4-1.6 4.7-0.6 0.3-1 2-1 3.8 0 1.7-0.6 4.1-1.5 5.2-0.8 1.1-1.4 3.4-1.5 5 0 1.6-0.6 3.9-1.5 5-0.8 1.1-1.4 3.4-1.5 5 0 1.6-0.6 3.9-1.5 5-0.8 1.1-1.5 3.5-1.5 5.3 0 1.7-0.7 4.7-1.6 6.5-0.9 1.7-2 3.9-2.4 4.7-0.4 0.8-1 3.3-1.4 5.5-0.3 2.2-1.5 5.8-2.5 8-1 2.2-2.1 6.1-2.5 8.8-0.3 2.6-1.1 4.9-1.6 5.2-0.6 0.3-1 1.5-1 2.8 0 1.2-0.7 3.6-1.5 5.2-0.9 1.6-1.5 4.1-1.5 5.5 0 1.4-0.6 3.4-1.5 4.5-0.8 1.1-1.5 3.9-1.5 6.3 0 2.4-0.7 4.9-1.5 5.7-0.8 0.8-1.5 2.7-1.5 4.3 0 1.5-0.6 3.6-1.5 4.7-0.8 1.1-1.4 3.4-1.5 5 0 1.6-0.6 3.9-1.5 5-0.8 1.1-1.5 3.4-1.5 5 0 1.6-0.7 3.9-1.5 5-0.9 1.1-1.5 3-1.5 4.3 0 1.2-0.4 3-0.9 4-0.5 0.9-1.3 2.8-1.9 4.2-0.6 1.4-1.8 5.2-2.7 8.5-0.9 3.3-2.1 7.4-2.7 9-0.6 1.6-1.3 5.1-1.7 7.7-0.3 2.6-1.2 5.3-1.9 6-0.7 0.7-1.2 2.4-1.2 3.8 0 1.4-0.6 3.4-1.5 4.5-0.8 1.1-1.5 3.5-1.5 5.3 0 1.7-0.7 3.9-1.5 4.7-0.8 0.8-1.5 2.1-1.5 2.8 0.1 0.6-0.7 2-1.7 2.9-1 1-3 1.8-4.6 1.8-2.2 0-2.7 0.4-2.7 2.5v2.5h20c0-4.4-0.6-5.1-2.5-5.5-1.9-0.4-2.6-1.3-3.1-3.7-0.3-2.2 0-4.1 1-5.5 0.9-1.3 1.6-3.3 1.6-4.5 0-1.3 0.6-3.2 1.5-4.3 0.8-1.1 1.4-3.4 1.5-5 0-1.6 0.6-3.9 1.5-5 0.8-1.1 1.5-3.5 1.5-5.2 0-1.8 0.4-3.5 1-3.8 0.5-0.3 0.8-1.2 0.5-2-0.3-0.8-0.1-1.5 0.5-1.5 0.5 0 1-0.9 1-2 0-1.1 0.4-2.8 1-3.7 0.5-1 2.1-5.2 3.5-9.3 1.3-4.1 2.5-8.6 2.5-10 0-1.4 0.7-3.9 1.5-5.5 0.9-1.6 1.5-4.1 1.5-5.5 0-1.4 0.6-3.4 1.5-4.5 0.8-1.1 1.4-3.1 1.5-4.5 0-1.4 0.6-3.4 1.5-4.5 0.8-1.1 1.4-3.6 1.5-5.5 0-1.9 0.6-4.4 1.5-5.5 0.8-1.1 1.5-3.5 1.5-5.2 0-1.8 0.7-4.8 1.6-6.5 0.9-1.8 2-4 2.4-4.8 0.4-0.8 1.1-3.3 1.5-5.5 0.4-2.2 1.5-5.8 2.5-8 1-2.2 2-5.9 2.4-8.2 0.3-2.4 0.9-4.5 1.3-4.7 0.5-0.2 1.1-2.4 1.5-5 0.5-2.5 1.2-4.8 1.8-5.1 0.5-0.3 1-2 1-3.7 0-1.8 0.6-4.2 1.5-5.3 0.8-1.1 1.5-3.9 1.5-6.2 0-2.5 0.7-5 1.5-5.8 0.8-0.8 1.5-2.7 1.5-4.2 0-1.6 0.6-3.7 1.5-4.8 0.8-1.1 1.5-3.2 1.5-4.7 0-1.6 1-4.6 2.2-6.8 1.3-2.2 2.9-4.2 3.5-4.5 0.7-0.3 2.6 0.2 4.3 1 1.6 0.8 3.8 1.5 4.7 1.5 1 0 2.7 0.6 3.8 1.5 1.1 0.8 2.9 1.5 4 1.5 1.1 0 3.1 0.6 4.5 1.3 1.4 0.7 3.7 1.6 5.2 2 1.6 0.4 2.8 1.2 2.8 1.7 0 0.5 0.6 1 1.2 1 0.7 0.1 4.6 2.1 8.5 4.5 4 2.5 7.9 4.5 8.5 4.5 0.7 0 2.6 1.4 4.3 3.1 1.6 1.7 4.2 3.7 5.7 4.3 1.4 0.6 5.8 4.1 9.7 7.9 3.9 3.7 7.8 6.7 8.6 6.7 0.8 0 4 2.6 6.9 5.8 3 3.1 7.2 8 9.3 10.7 2.1 2.8 4.9 6.3 6.3 7.9 1.4 1.6 3.5 3.9 4.8 5 1.2 1.2 2.2 2.8 2.2 3.6 0 0.8 0.9 2.4 2 3.5 1.2 1.1 3.3 4 4.7 6.5 1.5 2.5 2.9 4.7 3.3 5 0.3 0.3 3.3 5.9 6.5 12.5 3.3 6.6 6.3 12.2 6.7 12.5 0.3 0.3 1 2.3 1.4 4.5 0.4 2.2 1.3 4.6 2.1 5.3 0.7 0.6 1.3 2.8 1.3 4.7 0 1.9 0.4 3.7 1 4 0.5 0.3 1.2 2.3 1.5 4.5 0.3 2.2 0.9 4.2 1.5 4.5 0.5 0.3 1.3 2.4 1.6 4.8 0.4 2.3 1 4.7 1.4 5.2 0.4 0.5 1.1 2.6 1.4 4.5 0.4 1.9 1.4 6 2.3 9 0.9 3 1.9 6.4 2.4 7.5 0.4 1.1 1.9 5.7 3.3 10.3 1.4 4.5 2.6 9.3 2.6 10.7 0 1.4-0.7 3.2-1.5 4-0.8 0.8-1.5 2.6-1.5 4v2.5h29c0-3.9-0.6-5-1.3-5-0.6 0.1-3.1-1.7-5.5-4-3.5-3.3-4.3-4.9-5-9.1-0.4-2.8-1-5.3-1.5-5.5-0.4-0.2-1-2.5-1.5-5-0.4-2.6-1-4.8-1.5-5-0.4-0.2-1-2.5-1.5-5-0.4-2.6-1-4.8-1.5-5-0.4-0.2-1-2.5-1.5-5-0.4-2.6-1-4.8-1.5-5-0.4-0.2-1-2.5-1.3-5.1-0.4-2.7-1-5.3-1.4-5.8-0.3-0.5-2-5-3.5-10-1.6-5-3.3-9.2-3.6-9.5-0.4-0.3-1.1-2.9-1.6-5.9-0.4-2.9-1.1-5.5-1.6-5.7-0.4-0.2-1-2.5-1.5-5-0.4-2.6-1-4.8-1.5-5-0.4-0.2-1-2.5-1.5-5-0.4-2.6-1-4.8-1.5-5-0.4-0.2-1-2.5-1.3-5.1-0.4-2.7-1-5.3-1.4-5.8-0.5-0.5-1.1-2.8-1.5-5-0.4-2.2-1.1-4.5-1.5-5-0.4-0.5-1.1-2.6-1.5-4.5-0.4-1.9-1.1-4.2-1.5-5-0.4-0.8-1.2-3.1-1.7-5-0.6-1.9-1.8-6.2-2.8-9.5-1-3.3-2.1-6.7-2.5-7.5-0.4-0.8-1.2-3.2-1.6-5.4-0.5-2.1-1.2-4-1.7-4.2-0.4-0.2-1-2.5-1.4-5.1-0.3-2.7-1.2-5.9-2-7.3-0.7-1.4-1.3-4-1.3-5.7 0-1.8-0.5-3.5-1-3.8-0.6-0.3-1.2-2.3-1.5-4.5-0.3-2.2-1-4.2-1.5-4.5-0.6-0.3-1.3-2.6-1.8-5.1-0.4-2.6-1-4.8-1.5-5-0.4-0.2-1-2.3-1.3-4.6-0.3-2.4-0.9-5.2-1.4-6.3-0.5-1.1-1.5-4-2.3-6.5-0.8-2.5-2-6.6-2.8-9.3-0.8-2.6-1.7-4.7-2.2-4.7-0.4 0-1-2.1-1.3-4.7-0.3-2.7-1.2-6.3-2-8-0.8-1.8-1.4-4.4-1.4-5.8 0-1.4-0.5-2.7-1-3-0.6-0.3-1.2-2.3-1.5-4.5-0.3-2.2-1-4.2-1.5-4.5-0.6-0.3-1.3-2.6-1.6-5.2-0.4-2.7-1-5.3-1.4-5.8-0.4-0.5-1.1-2.6-1.5-4.5-0.4-1.9-1.4-5.7-2.2-8.5-0.8-2.7-1.8-5.9-2.3-7-0.4-1.1-1.3-3.4-1.8-5-0.6-1.6-1.8-5.7-2.7-9-0.9-3.3-2.1-6.8-2.6-7.7-0.5-1-1.2-3.7-1.7-5.9-0.4-2.3-1-4.3-1.5-4.5-0.4-0.2-0.9-2.4-1.2-4.9-0.3-2.5-1-4.5-1.5-4.5-0.6 0-1.3-2.5-1.8-5.6-0.4-3.1-1-5.8-1.5-6-0.4-0.2-1-2.5-1.5-5-0.4-2.6-1-4.8-1.5-5-0.4-0.2-0.9-2.2-1.2-4.4-0.3-2.2-1-4.2-1.5-4.5-0.6-0.3-1.2-2.5-1.5-5-0.4-4-0.8-4.5-3-4.5-1.9 0-2.6 0.6-3.1 2.8z"/>
		<path id="Path 45" class="s4" d="m1040.2 83c-1.2 2.5-3.1 7.9-4.2 12-1.2 4.1-2.5 8.6-3 10-0.5 1.4-1.8 5.9-3 10-1.2 4.1-2.5 8.6-3 10-0.5 1.4-2.3 7.2-4.1 13-1.7 5.8-3.7 12.3-4.4 14.5-0.7 2.2-2.3 7.4-3.5 11.5-1.2 4.1-3.1 10.1-4.1 13.3-1.1 3.1-1.9 6.4-1.9 7.2 0 0.8-0.4 2.3-0.9 3.2-0.6 1-2.4 6.8-4.1 12.8-1.7 6-4.2 14.1-5.5 18-2.1 6-2.2 7.3-1.1 9 0.8 1.1 4.4 3.1 8.2 4.3 3.8 1.3 9.4 3.5 12.4 4.9 3 1.4 8 3.7 11 5.1 3 1.5 7.3 3.8 9.5 5.1 2.2 1.4 4.9 3.1 6 3.8 1.1 0.7 2.7 1.5 3.5 1.9 0.8 0.4 6.7 4.7 13 9.5 6.3 4.8 16.1 13.4 21.7 19.1 5.7 5.6 11.3 11.6 12.5 13.2 1.3 1.6 4.1 5.2 6.3 8 2.3 2.8 5.2 6.9 6.5 9.1 1.3 2.2 2.8 4.1 3.2 4.2 0.4 0.2 1.3 1.5 2 3l1.2 2.8c0.5-3.9 0.2-5.5-0.4-6-0.6-0.5-1-1.8-1-2.8 0-0.9-0.6-3.6-1.4-6-0.7-2.3-2-6.5-2.9-9.2-0.8-2.8-2.5-8.4-3.7-12.5-1.2-4.1-2.5-8.6-3-10-0.5-1.4-2.2-7-3.9-12.5-1.6-5.5-4.5-15.2-6.4-21.5-1.9-6.3-4.5-14.9-5.7-19-1.2-4.1-2.8-9.3-3.5-11.5-0.7-2.2-2.1-6.7-3.1-10-0.9-3.3-2.5-8.5-3.5-11.5-0.9-3-2.7-8.9-3.9-13-1.2-4.1-2.5-8.6-3-10-0.5-1.4-2-6.1-3.3-10.5-1.4-4.4-3.2-10.7-4.2-14-0.9-3.3-2.3-7.8-3-10-0.7-2.2-2-6.5-2.9-9.5-0.8-3-3.2-10.9-5.2-17.5-2-6.6-4.2-14-4.9-16.5-0.7-2.5-1.7-5.6-2.3-7-0.9-2.5-1-2.4-3 2z"/>
		<path id="Path 46" class="s3" d="m31.6 23c-0.4 0.6 1 1 3.4 1 2.2 0 4-0.4 4-0.8 0.1-0.4-1.5-0.9-3.4-1-1.9-0.1-3.7 0.2-4 0.8z"/>
		<path id="Path 47" class="s3" d="m672 46.7c-3 0.2-5.9 0.8-6.5 1.4-0.5 0.5-2.7 0.9-5 0.9-2.2 0-5.8 0.5-8 1.1-2.2 0.5-5.8 1.4-8 2-2.2 0.5-4.9 1.3-6 1.8-1.1 0.5-5.9 2.2-10.8 3.7-4.8 1.6-8.7 3.2-8.7 3.6 0 0.5-0.6 0.8-1.3 0.8-0.6 0-2.9 0.9-5 2-2 1.1-4.2 2-4.8 2-0.6 0-1.7 0.7-2.5 1.5-0.9 0.8-2.4 1.5-3.5 1.5-1 0-1.9 0.5-1.9 1 0 0.5-1.2 1.3-2.8 1.7-1.5 0.3-4.2 1.9-6 3.5-1.7 1.5-3.8 2.8-4.5 2.8-0.6 0-2.7 1.6-4.6 3.5-1.8 1.9-4 3.5-4.7 3.5-0.8 0-3.3 1.7-5.5 3.7-2.3 2.1-5.5 4.6-7.3 5.7-1.7 1-6.8 5.6-11.4 10.2-4.5 4.6-8.2 8.9-8.2 9.4 0 0.5-2.9 4.1-6.5 8-3.6 3.9-6.5 7.5-6.5 8 0 0.5-1.3 2.7-2.9 4.7-1.6 2.1-3.2 4.8-3.5 6-0.3 1.3-1.1 2.3-1.6 2.3-0.5 0-2.8 3.7-5 8.2-2.2 4.6-4 8.9-4 9.5 0 0.7-0.5 1.3-1 1.3-0.5 0-1 0.7-1 1.5 0 0.8-0.6 2.7-1.3 4.2-0.8 1.6-2.1 4.3-3 6-0.9 1.8-1.7 4-1.7 4.8 0 0.8-0.6 3-1.4 4.7-0.7 1.8-1.9 5.3-2.6 7.8-0.7 2.5-1.7 5.9-2.2 7.5-0.6 1.6-1.4 5-1.8 7.5-0.5 2.5-1.4 7.6-2 11.5-0.8 4.7-1.1 15.6-0.9 32.6 0.3 17 0.8 26.1 1.5 27 0.7 0.8 1.4 3 1.7 4.9 0.3 1.9 1.2 6.4 2.1 10 0.9 3.6 1.9 7.5 2.1 8.7 0.3 1.3 0.8 2.3 1.2 2.3 0.5 0 1.1 1.7 1.5 3.7 0.4 2.1 1.4 5.2 2.2 6.8 0.9 1.6 1.6 3.9 1.6 5 0 1.1 0.7 2.9 1.5 4 0.9 1.1 1.5 2.8 1.5 3.7 0 1 0.5 1.8 1 1.8 0.5 0 1.3 1.2 1.7 2.7 0.4 1.6 1.7 4.6 3 6.8 1.2 2.2 2.7 4.9 3.2 6 0.5 1.1 2.3 3.6 4 5.5 1.7 1.9 3.1 4.3 3.1 5.2 0 1 0.3 1.8 0.7 1.8 0.5 0 2.5 2.6 4.5 5.7 2 3.2 5.8 7.8 8.3 10.3 2.5 2.5 4.5 5.1 4.5 5.7 0 0.7 1 1.7 2.2 2.2 1.3 0.5 7 5.7 12.8 11.5 5.8 5.9 12.1 11.6 14 12.8 1.9 1.2 4.6 3.1 6 4.4 1.4 1.2 5.2 3.6 8.5 5.4 3.3 1.7 8.6 4.7 11.7 6.6 3.2 1.9 6.6 3.4 7.5 3.4 1 0 5.5 1.8 10 4 4.6 2.2 9 4 9.8 4 0.8 0 1.7 0.3 1.9 0.7 0.2 0.5 2.1 1.2 4.2 1.6 2.2 0.5 4.4 1.2 4.9 1.5 0.5 0.4 3.7 1.2 7 1.9 3.3 0.6 8 1.6 10.5 2.2 2.5 0.5 7.1 1 10.2 1.1 3.2 0 6 0.5 6.3 1 0.3 0.6 8 1 20 1 10.7 0 19.7-0.3 19.9-0.8 0.2-0.4 4.6-1.1 9.7-1.5 5.2-0.5 9.9-1.2 10.4-1.7 0.5-0.4 3.2-1.1 6-1.5 2.7-0.4 5.5-1.1 6-1.5 0.5-0.5 2.8-1.1 5-1.5 2.2-0.4 4.5-1.1 5-1.5 0.5-0.4 3.5-1.5 6.5-2.5 3-0.9 9.1-3.5 13.5-5.6 4.4-2.2 8.3-3.9 8.8-3.9 0.4 0 3.1-1.4 5.9-3.2 2.9-1.8 5.9-3.8 6.6-4.5 0.7-0.7 1.9-1.3 2.5-1.3 0.7 0 3-1.6 5.2-3.5 2.2-2 4.5-3.5 5-3.5 0.5 0.1 3.9-2.5 7.4-5.7 3.5-3.2 7.6-6.5 9-7.4 1.4-0.9 4.7-3.8 7.3-6.5 2.7-2.7 5.7-6.3 6.7-7.9 1-1.6 4.4-5.6 7.5-8.8 3.1-3.1 6.3-7.1 7.1-8.7 0.8-1.6 2.4-3.9 3.5-5 1.1-1.1 2.5-3.4 3-5 0.5-1.6 1.5-3 2-3 0.5 0 1-0.9 1-2 0-1.1 0.7-2.7 1.5-3.5 0.8-0.8 1.8-2.7 2.2-4.1 0.5-1.5 1-2.8 1.3-2.9 0.3-0.1 2.1-3.6 4.1-7.6 1.9-4.1 4.3-9.1 5.2-11.2 0.9-2 1.7-4.5 1.7-5.5 0-0.9 0.6-2.6 1.4-3.7 0.7-1.1 1.6-4.4 2-7.3 0.3-2.8 1.1-5.4 1.6-5.7 0.5-0.3 1.3-3.1 1.6-6.3 0.4-3.1 1-6.2 1.5-6.7 0.5-0.5 1.1-6.6 1.4-13.5 0.4-6.9 1.1-13.4 1.7-14.5 0.5-1.1 0.7-4.3 0.4-7-0.3-2.8-1-11.8-1.6-20-0.6-8.3-1.4-15.5-1.9-16-0.5-0.5-1.3-4.1-1.8-7.9-0.4-3.7-1.1-7-1.6-7.2-0.4-0.2-1-2.3-1.3-4.7-0.4-2.3-1-4.7-1.4-5.2-0.4-0.5-1.1-2.6-1.5-4.5-0.3-1.9-1.7-5.8-3-8.5-1.2-2.8-3.9-8.4-5.8-12.5-2-4.1-4.5-8.6-5.7-10-1.1-1.4-2-3.3-2-4.3 0-0.9-0.5-1.7-1-1.7-0.5 0-1.4-1.2-1.8-2.8-0.5-1.5-2.1-4.1-3.6-5.7-1.5-1.6-2.6-3.5-2.6-4 0-0.5-1.9-3.1-4.2-5.6-2.4-2.5-5.6-6.6-7.2-9-1.6-2.4-6.9-8.3-11.8-13.2-4.8-4.8-9.4-8.7-10.1-8.7-0.6 0.1-4-2.6-7.5-6-3.4-3.3-6.9-6-7.7-6-0.8 0-2.8-1.2-4.4-2.8-1.7-1.5-7.6-5-13.3-7.9-5.7-2.8-11.3-5.4-12.5-5.7-1.3-0.3-2.3-1.1-2.3-1.6 0-0.5-0.8-1-1.7-1-1 0-2.7-0.6-3.8-1.4-1.1-0.7-5.6-2.6-10-4-4.4-1.5-8.9-3.1-10-3.6-1.1-0.6-4-1.5-6.5-2.1-2.5-0.6-7.9-1.7-12-2.6-4.1-0.8-10.9-1.8-15-2.3-4.1-0.5-14.5-0.8-23-0.7-8.5 0-18 0.2-21 0.4z"/>
		<path id="Path 48" class="s4" d="m692.5 57.6c-2.8 0.2-9.7 1.1-15.5 2-5.8 0.9-14.5 2.7-19.5 4-5 1.4-9.7 2.9-10.5 3.3-0.8 0.5-3.1 1.2-5 1.6-1.9 0.4-4.2 1.2-5 1.6-0.8 0.5-3.8 1.8-6.5 2.9-2.8 1.2-8.1 3.7-12 5.7-3.9 2-7.9 4.1-9 4.7-1.1 0.6-6.5 4.1-12 7.8-5.5 3.7-10.9 7.5-12 8.5-1.1 1-5.1 4.4-9 7.4-3.9 3.1-10.3 9.2-14.4 13.5-4.1 4.3-11.1 12.9-15.6 18.9-4.5 6-9.7 13.7-11.7 17-1.9 3.3-5.9 11-8.8 17-2.9 6-5.6 11.9-6.1 13-0.4 1.1-1.8 5.1-2.9 9-1.2 3.9-2.6 7.9-3 9-0.5 1.1-1.5 5.1-2.4 9-0.9 3.9-2.1 9.9-2.7 13.5-0.6 3.6-1.3 15.3-1.5 26-0.4 16.3-0.2 21.4 1.5 31.5 1.1 6.6 2.6 14.7 3.4 18 0.8 3.3 2.8 9.8 4.4 14.5 1.7 4.7 4.7 11.9 6.6 16 2 4.1 5 9.8 6.7 12.5 1.6 2.7 3.3 5.7 3.7 6.5 0.4 0.8 2.4 4 4.5 7 2.1 3 6.2 8.4 9.2 12 3 3.6 9.2 9.9 13.8 14.2 4.5 4.2 11.2 9.9 14.8 12.6 3.6 2.7 8.3 5.9 10.5 7.1 2.2 1.2 5.4 3.1 7 4.1 1.6 1 4.8 2.8 7 3.8 2.2 1.1 6.2 3 9 4.2 2.7 1.2 6.5 2.8 8.2 3.6 1.8 0.8 4.1 1.4 5 1.4 1 0 2.3 0.4 2.8 0.9 0.5 0.5 5.7 2 11.5 3.5 5.8 1.4 15.7 3.2 22 4.1 6.3 0.8 16.7 1.5 23 1.5 6.3 0 15.1-0.5 19.5-1.1 4.4-0.6 12.7-2 18.5-3.1 5.8-1.1 15.9-3.8 22.5-6 6.6-2.2 12.5-4.3 13-4.8 0.5-0.4 2.1-1.1 3.5-1.5 1.4-0.4 5.6-2.3 9.5-4.3 3.9-1.9 8.1-4.1 9.5-4.9 1.4-0.8 3.7-2.2 5.2-3.1 1.4-0.9 4.8-3 7.5-4.6 2.6-1.6 5-3.2 5.3-3.5 0.3-0.4 4.3-3.6 9-7.2 4.7-3.6 12.5-10.6 17.4-15.5 4.9-4.9 12.1-12.9 15.9-17.9 3.9-5 8.6-11.5 10.6-14.5 2-3 4-6.3 4.6-7.2 0.5-1 3.5-6.8 6.6-13 3.1-6.2 6.5-13.3 7.4-15.8 1-2.5 2.1-5.4 2.5-6.5 0.4-1.1 1.3-3.4 1.8-5 0.6-1.6 1.6-4.8 2.2-7 0.6-2.2 1.8-6.9 2.6-10.5 0.8-3.6 2.1-10.8 3-16 0.8-5.8 1.4-16.6 1.4-27.5 0-11.1-0.6-21.1-1.5-26-0.8-4.4-2.1-10.9-2.9-14.5-0.8-3.6-2.1-8.7-2.9-11.5-0.9-2.7-2.5-7.7-3.7-11-1.2-3.3-4.4-10.5-7.1-16-2.8-5.5-7-13.1-9.5-17-2.4-3.9-7.8-11-11.9-16-4.1-5-9.8-11.3-12.7-14.1-2.9-2.8-9.1-8-13.8-11.6-4.7-3.6-11.6-8.5-15.5-10.8-3.9-2.4-10.8-6.1-15.5-8.2-4.7-2.2-9.4-4.4-10.5-4.9-1.1-0.5-6-2.2-11-3.8-5-1.5-12.6-3.6-17-4.5-4.4-1-9.9-2.1-12.2-2.7-2.4-0.5-11.4-1.1-20.1-1.3-8.6-0.2-17.9-0.2-20.7 0z"/>
		<path id="Path 49" class="s2" d="m352.6 13.1c-2.2 1.1-3.9 2.6-3.8 3.4 0.1 0.8-0.5 1.7-1.3 2-0.8 0.3-1.5 1.6-1.5 3 0 1.4-0.5 2.7-1 3-0.5 0.3-1.2 2.6-1.6 5.3-0.3 2.6-0.9 5.5-1.5 6.5-0.5 0.9-0.9 3-0.9 4.7 0 1.6-0.5 4.1-1.2 5.5-1.1 2.2-1.9 2.6-6.1 2.5-4.7 0-4.7 0-8.7 6.3-2.7 4.2-4 7.3-4 9.7 0 1.9-0.4 4-0.9 4.5-0.6 0.5-1.3 5.7-1.6 11.5-0.4 5.8-1.3 12.4-2.1 14.8-0.8 2.3-1.4 6.7-1.4 9.7 0 3-0.5 5.7-1 6-0.6 0.3-1 2-1 3.8 0 2.4-1 4.4-4.2 8-2.4 2.6-4.9 4.8-5.6 4.7-0.6 0-1.2 0.3-1.2 0.8 0.1 0.4-3.4 4.3-7.7 8.7-4.3 4.4-9.9 10.4-12.6 13.3-2.6 2.8-5.5 5.6-6.5 6.1-1.2 0.6-2.2 0.2-3.6-1.3-1.4-1.6-1.7-2.9-1.1-5.6 0.4-1.9 2.5-6.9 4.7-11 2.1-4.1 4.5-8.2 5.3-9 0.8-0.8 1.5-1.8 1.5-2.2 0-0.5 0.4-1.4 1-2 0.5-0.7 2.1-2.8 3.5-4.5 1.4-1.8 2.3-3.3 2-3.3-0.3 0 1.1-2.1 3-4.7 1.9-2.7 4-5.5 4.8-6.3 0.7-0.8 2-2.6 2.8-4 0.9-1.4 3-3.9 4.7-5.5 1.8-1.6 3.2-3.6 3.2-4.2 0-0.7 0.7-2 1.5-2.8q1.5-1.5 1.5-7.5c0-4.7-0.3-6-1.5-6-0.8 0-1.5-0.5-1.5-1 0-0.6-3.5-1-8.5-1-5 0-8.5 0.4-8.5 1 0 0.5-0.8 1-1.8 1-0.9 0-2.7 1.1-4 2.5-1.2 1.4-6.1 5.1-11 8.2-4.8 3.2-12.2 9.2-16.5 13.3-4.3 4.1-9.2 8.3-10.8 9.3-1.6 0.9-2.9 2.2-2.9 2.7 0 0.5-0.7 1-1.5 1-0.8 0-1.5 0.6-1.5 1.3 0 0.6-2.6 3.6-5.8 6.5-3.1 2.9-5.9 5.3-6.1 5.2-0.1 0-1.8 1.6-3.7 3.5-1.9 1.9-3.4 4-3.4 4.5 0 0.5-0.6 1-1.3 1-0.6 0-3.3 3.3-5.8 7.3-2.5 3.9-6.3 11-8.4 15.7-2.2 4.7-4.3 8.7-4.6 9-0.4 0.3-1 2.5-1.4 5-0.4 2.5-1.1 5-1.5 5.5-0.4 0.5-1.1 3.4-1.4 6.3-0.3 2.8-1.1 5.4-1.6 5.7-0.6 0.3-1 1.5-1 2.8 0 1.2-0.8 4.5-1.6 7.2-0.9 2.8-2 6.4-2.6 8-0.5 1.6-1.8 6.4-2.8 10.5-1.1 4.1-3.9 13.3-6.2 20.3-2.4 7-4.6 12.7-5.1 12.7-0.4 0-0.7 0.7-0.7 1.5 0 0.8-0.6 2.7-1.3 4.3-0.8 1.5-2.1 4.3-2.9 6.2-0.8 1.9-2.3 5.2-3.2 7.3-0.9 2-1.6 4.3-1.6 5 0 0.6-1.2 4.1-2.6 7.7-1.4 3.6-4.4 10.8-6.7 16-2.2 5.2-4.6 10.2-5.3 11-0.8 0.8-1.4 2.1-1.4 2.8 0 0.6-1.4 3.8-3 7-1.7 3.1-3 6-3 6.5 0 0.4-4.3 9.6-9.5 20.5-5.2 10.8-10.2 21.1-10.9 22.7-0.8 1.6-1.7 3.9-2 5-0.3 1.1-0.5 2.5-0.5 3 0 0.5-0.3 1.2-0.9 1.5-0.5 0.3-2.3 4.5-4.1 9.5-1.8 5-3.9 10.1-4.6 11.5-0.8 1.4-2.8 5.3-4.5 8.8-1.6 3.4-3 6.7-3 7.2 0 0.5-0.9 2.9-2 5.3-1.1 2.3-2.4 5.7-2.8 7.6-0.4 1.8-1 3.5-1.5 3.7-0.4 0.2-0.7 1.3-0.7 2.4 0 1.1-1 3.2-2.3 4.8-1.2 1.5-2.8 3.9-3.5 5.5-0.7 1.5-1.2 3-1.2 3.5 0 0.4 18.6 0.6 41.2 0.5 22.7-0.1 41.7-0.4 42.3-0.6 0.5-0.2 2.1-3.6 3.5-7.6 1.4-3.9 2.8-7.2 3.2-7.1 0.5 0 1-2 1.3-4.5 0.3-2.5 0.9-4.7 1.5-5 0.5-0.3 1-1.6 1-3 0-1.4 0.6-4 1.4-5.7 0.7-1.8 2-5.1 2.9-7.3 0.8-2.2 2.7-8 4.2-13 1.6-5 3.9-12.4 5.3-16.5 1.3-4.1 3.2-9 4.1-10.8 0.9-1.8 1.9-3.2 2.3-3.2 0.5 0 0.6-0.5 0.3-1-0.3-0.5-0.1-1 0.5-1 0.5 0 1.2-1.6 1.5-3.5 0.3-1.9 0.9-3.5 1.5-3.5 0.5 0 1.3-1 1.6-2.2 0.3-1.3 0.9-3.2 1.4-4.3 0.4-1.1 2.1-5.4 3.8-9.5 1.6-4.1 3.2-8.7 3.6-10.2 0.3-1.6 1-2.8 1.6-2.8 0.5 0 1.9-1.8 3-4 1.1-2.2 2.9-4.9 4-6 1.1-1.1 2-2.7 2-3.5 0-0.8 0.4-1.5 1-1.5 0.5 0 1.3-1.2 1.7-2.7 0.4-1.6 1.1-3.4 1.7-4.1 0.6-0.7 1.9-2.1 2.8-3 0.9-0.9 1.8-2.4 2-3.2 0.2-0.8 0.7-2 1.3-2.7 0.5-0.7 2.8-3.2 4.9-5.6 2.1-2.3 7.2-7.6 11.2-11.7 4-4.1 7.3-7.8 7.4-8.3 0-0.4 1.1-1.8 2.5-3.2 1.4-1.4 3-2.5 3.5-2.5 0.6 0 1-0.7 1-1.5 0-0.8 0.7-1.5 1.5-1.5 0.8 0 1.5-0.7 1.5-1.5 0-0.8 0.6-1.5 1.2-1.5 0.7 0 4.1-2.9 7.5-6.5 3.5-3.6 6.3-6.7 6.3-7 0-0.3 1.1-1.6 2.5-3 1.4-1.4 3-2.5 3.5-2.5 0.6 0 1-0.5 1-1 0-0.5 3.7-4.7 8.3-9.2 4.5-4.6 9.5-9.9 11.1-11.8 1.6-1.9 5.5-6.3 8.7-9.7 3.3-3.5 5.9-6.8 5.9-7.3 0-0.5 0.7-1 1.5-1 0.8 0 1.5-0.7 1.5-1.5 0-0.8 0.7-1.5 1.5-1.5 0.8 0 1.5-0.7 1.5-1.5 0-0.8 0.6-1.5 1.2-1.5 0.7-0.1 2.3-1.2 3.5-2.5 1.3-1.4 2.3-3 2.3-3.5 0-0.5 0.7-1 1.5-1 0.8 0 1.5-0.7 1.5-1.5 0-0.8 0.5-1.5 1-1.5 0.5 0 1.7-1.4 2.5-3 0.8-1.6 2.4-3.9 3.5-5 1.1-1.1 2-2.5 2-3 0-0.5 0.7-1 1.5-1 0.8 0 1.5-0.7 1.5-1.5 0-0.8 0.6-1.8 1.4-2.3 0.8-0.4 2.5-2.3 3.8-4.2 1.4-1.9 2.7-4.7 3.1-6.3 0.4-1.5 1.2-2.7 1.7-2.7 0.5 0 1-0.7 1-1.5 0-0.8 2.3-6.3 5.1-12.3 2.7-5.9 6.2-13.2 7.6-16.2 1.4-3 3.4-8.2 4.3-11.5 1-3.3 2.1-7.4 2.5-9 0.3-1.6 0.8-4.1 1-5.5 0.2-1.4 0.7-5 1.1-8 0.4-3 1-6.2 1.4-7 0.5-0.8 1.3-6.5 1.9-12.5 0.8-7.3 0.9-18.2 0.4-32.1-0.6-16.5-1.1-21.4-2.3-22.8-0.9-1-2.9-1.7-4.8-1.6-1.8 0-4.1 0.9-5.2 2-1.1 1.1-2 2.3-2 2.8 0.1 0.4-1.1 1.9-2.5 3.5-1.4 1.5-2.5 3.6-2.5 4.7 0 1.1-0.7 2-1.5 2-0.9 0-1.6 1.1-1.9 2.8-0.3 2.4-0.3 2.4-0.5-0.5 0-1.8-0.4-3.5-0.9-3.7-0.4-0.2-1-3.6-1.5-7.5-0.5-5.1-1.3-7.7-2.7-9.1-1.2-1.2-3.3-2-5.3-2-1.7 0.1-5 1-7.1 2.1z"/>
		<path id="Path 50" class="s1" d="m44.8 13.5c-1.3 2.4-2.1 4.7-1.8 5 0.3 0.2 1.4-0.2 2.5-0.9q2-1.4 2.1-5c0-2-0.1-3.6-0.2-3.6-0.2 0-1.3 2-2.6 4.5z"/>
		<path id="Path 51" class="s3" d="m20.5 16.8c-1 1-1.8 2.3-1.7 2.8 0.1 0.5 1.1 0 2.3-1.1l2.1-2c3.3 4.2 4.9 5.5 5.5 5.5 0.8 0 1.1-0.8 0.8-2-0.3-1.1 0.1-2.3 0.8-2.7 0.9-0.4 3 1 5.5 3.5 3.5 3.5 4.4 4 5.7 2.9 0.9-0.6 1.6-1.7 1.5-2.2 0-0.5-1-0.8-2.3-0.6-1.5 0.2-3.1-0.7-5-2.8-1.5-1.7-3.4-3.1-4.2-3.1-0.8 0-1.5 0.5-1.5 1 0 0.5-0.8 0.8-1.8 0.4-0.9-0.3-2.6-0.7-3.7-1-1.2-0.3-2.8 0.3-4 1.4z"/>
		<path id="Path 52" class="s1" d="m64 14.8c0 0.4 0.4 2.2 1 3.9 0.5 1.8 1.4 3.3 2 3.3 0.6 0 1.3-0.6 1.6-1.3 0.3-0.6 0-2.5-0.7-4-0.8-1.5-2-2.8-2.7-2.7-0.6 0-1.2 0.3-1.2 0.7z"/>
		<path id="Path 53" class="s1" d="m20 17.3c-1.3 1.3-2.3 2.9-2.2 3.5 0.1 0.7 0.5 1.2 1 1.2 0.4 0 1.4-0.5 2.2-1 1-0.6 2.1-0.4 3.3 0.8 1.4 1.3 2.7 1.5 5.8 0.9 3.2-0.6 4.2-0.4 5.7 1.3 0.9 1.1 2.9 2 4.5 2 1.9 0 3.1-0.7 4-2.5 0.6-1.4 0.9-2.8 0.5-3.2-0.5-0.5-1.7 0-2.8 0.9-1.9 1.7-2.1 1.7-5.8-2.3-2.6-3-4.2-4-5.5-3.5-1.1 0.4-1.5 1.3-1.2 2.6q0.5 2-1 2c-0.8 0-2.2-1.1-3-2.5-0.8-1.4-1.9-2.5-2.3-2.5-0.5 0-1.9 1-3.2 2.3z"/>
		<path id="Path 54" class="s1" d="m65.7 26.8c-0.3 0.4-0.7 2.2-1.1 3.9-0.5 2.5-0.3 3.3 0.9 3.3 0.8 0 1.9-1.4 2.5-3 0.6-1.6 0.8-3.5 0.5-4-0.3-0.5-0.9-1-1.5-1-0.5 0-1.1 0.3-1.3 0.7z"/>
		<path id="Path 55" class="s5" d="m60.1 36.2c0 1.3-1 5-2.1 8.3-1 3.3-2.6 9.8-3.5 14.5-0.9 4.7-2.3 11.9-3.1 16-0.9 4.1-1.9 8.4-2.3 9.4-0.5 1.5-1.3 0.7-4.4-4.5-2.1-3.5-4.5-9.1-5.4-12.4-1-4.1-1.3-8-0.9-12.5 0.4-3.6 1-8.2 1.4-10.3 0.5-2.6 0.3-3.7-0.5-3.7-0.6 0-1.8 1.5-2.7 3.2-0.8 1.8-2.2 5.3-3.1 7.8-0.8 2.5-1.5 6.4-1.5 8.7 0 2.4 0.4 4.5 1 4.8 0.6 0.3 1 1.3 1 2.2 0 1 0.6 2.5 1.3 3.3 0.7 0.8 2.1 4 3.1 7 1 3 3.4 8.9 5.3 13 1.9 4.1 4.9 9.1 6.6 11 1.8 1.9 6.1 8.6 9.7 14.8 5.8 10 6.8 11.2 9 11 2.3-0.3 2.5-0.7 2.8-7.8 0.2-4.1 0.7-9.8 1.1-12.5 0.5-2.8 0.4-5.8 0-6.8q-0.9-1.7 0.6-3.2 1.5-1.5 2.1-10.3c0.3-5.5 0.1-9.1-0.5-9.7-0.6-0.5-0.8-1.2-0.5-1.5 0.3-0.3 0.3-1.5 0-2.8-0.3-1.2-1-2-1.6-1.7-0.6 0.3-1 2.6-1 5.2 0 2.7-0.7 7.9-1.6 11.8-0.8 3.9-1.8 10.8-2.2 15.4-0.4 4.5-1 8.5-1.4 8.7-0.5 0.2-2.4-1.3-4.3-3.4-2-2-4.8-6.2-6.4-9.2-1.5-3-2.6-6.4-2.3-7.5 0.2-1.1 1.5-3.4 2.7-5 2-2.6 2.5-5.3 3.9-19.5 0.8-9.1 1.7-20.3 1.8-24.9q0.3-8.4-0.8-8.8c-0.7-0.3-1.2 0.6-1.3 1.9z"/>
		<path id="Path 56" class="s1" d="m10.4 39.8c-0.3 1.5-0.3 2.9 0 3.2 0.3 0.3 1.3-0.2 2.1-1 0.9-0.8 1.6-2.3 1.5-3.2 0-1-0.7-1.8-1.5-1.8-0.8 0-1.7 1.2-2.1 2.8z"/>
		<path id="Path 57" class="s1" d="m61.1 48.4l-0.1 5.6c11.9 0 12 0 12.8 3.3 0.5 1.7 0.5 5.2 0 7.7-0.4 2.5-0.7 6.2-0.5 8.3 0.1 2 0.6 3.7 1.2 3.6 0.6 0 0.9-0.6 0.7-1.2-0.1-0.7 0.4-2.6 1.3-4.2 0.8-1.7 1.5-5.7 1.5-9.2 0-5.2-0.4-6.8-2.4-9-2-2.3-3.3-2.8-6.8-2.8-4.2 0-4.3 0-4.3-3.5 0-2.4-0.5-3.6-1.7-3.8-1.3-0.3-1.6 0.6-1.7 5.2z"/>
		<path id="Path 58" class="s1" d="m6.8 51c-1.1 2.5-1.1 3.3 0 4.3 1.1 1 1.6 0.8 2.8-0.8 0.8-1.1 1.4-3 1.4-4.3 0-1.2-0.6-2.2-1.4-2.2-0.8 0-2 1.4-2.8 3z"/>
		<path id="Path 59" class="s0" d="m61.6 57.3c-0.3 1.7-1 8.6-1.7 15.2-0.9 9.7-1.6 12.6-3.4 15-1.2 1.6-2.5 3.9-2.7 5-0.3 1.1 0.8 4.5 2.3 7.5 1.6 3 4.4 7.2 6.4 9.3 1.9 2 3.8 3.5 4.2 3.3 0.5-0.2 1.1-4.2 1.5-8.7 0.4-4.6 1.4-11.5 2.2-15.4 0.9-3.9 1.6-9 1.6-11.5 0-2.5 0.4-5 0.9-5.5 0.5-0.5 1.3-3.2 1.8-6 0.5-2.7 0.6-6.5 0.1-8.2-0.8-3.3-0.9-3.3-6.8-3.3-5.9 0-5.9 0-6.4 3.3z"/>
		<path id="Path 60" class="s1" d="m6.6 65.2c-0.3 0.7-1 3.1-1.5 5.3-0.6 2.2-1.1 9.6-1.1 16.5 0 8.2 0.4 13.4 1.2 15 0.7 1.4 1.7 2.6 2.2 2.5 0.6 0 1.1-8.4 1.3-19.7 0.2-11.8-0.1-20-0.6-20.3-0.5-0.4-1.2 0-1.5 0.7z"/>
		<path id="Path 61" class="s3" d="m74.2 81c-0.1 2.5-0.5 6.3-0.8 8.5-0.5 3-0.4 3.7 0.5 3 0.7-0.6 1-3.7 0.8-8.5-0.2-4.1-0.4-5.5-0.5-3z"/>
		<path id="Path 62" class="s1" d="m105.3 91c-1.2 0.4-2.8 1.6-3.6 2.6-0.8 1.1-1.7 2.7-2 3.6-0.4 1-0.3 1.8 0.3 1.8 0.6 0 2-1 3.3-2.3 1.2-1.2 3.4-2.8 5-3.5 1.7-0.8 2.9-0.8 3.2-0.2 0.3 0.5 1.6 1 3 1 1.4 0 2.5-0.5 2.5-1 0-0.5-0.6-1.3-1.2-1.7-0.7-0.4-2.9-0.7-4.8-0.8-1.9-0.1-4.5 0.1-5.7 0.5z"/>
		<path id="Path 63" class="s3" d="m116.4 93c0.3 0.5 1.3 1 2.1 1 0.8 0 2.6 0.7 4 1.5 1.4 0.8 2.5 1.2 2.5 0.8 0-0.5-1.4-1.6-3-2.5-1.7-1-3.7-1.8-4.6-1.8-0.9 0-1.3 0.5-1 1z"/>
		<path id="Path 64" class="s1" d="m118.6 93.9c-0.3 0.6 0.4 1.7 1.7 2.5 1.2 0.8 3.1 1.6 4.2 1.8 1.1 0.2 2.3 0.8 2.7 1.3 0.4 0.5 0.7 0.2 0.6-0.7-0.1-1-1.8-2.5-3.8-3.5-1.9-0.9-3.8-1.9-4.1-2.1-0.4-0.1-0.9 0.2-1.3 0.7z"/>
		<path id="Path 65" class="s3" d="m127 99c0 0.5 1 1.2 2.3 1.5 1.2 0.3 3.5 2.2 5.2 4.2 1.6 2.1 6.1 7.1 10 11.1 3.9 4 7.2 6.8 7.3 6.2 0.1-0.5-4.9-6.2-11.1-12.5-6.1-6.3-11.8-11.4-12.4-11.5-0.7 0-1.3 0.5-1.3 1z"/>
		<path id="Path 66" class="s1" d="m129 100.5c0 0.3 1.7 2.2 3.8 4.3 2 2 4.5 4.4 5.5 5.2 1.7 1.4 1.8 1.3 1.1-0.5-0.4-1.1-2.1-3.7-3.8-5.8-1.7-2.1-3.9-3.7-4.8-3.7-1 0-1.8 0.2-1.8 0.5z"/>
		<path id="Path 67" class="s1" d="m99.5 106.8c0.3 2 1 4.3 1.7 5 0.7 0.7 1.6 1.3 2 1.2 0.5 0 0.8-0.9 0.8-2 0-1.1-0.6-3.1-1.3-4.5-0.6-1.4-1.7-2.7-2.4-3-0.9-0.3-1.1 0.7-0.8 3.3z"/>
		<path id="Path 68" class="s1" d="m5.4 111.3c-0.3 0.6-0.1 2.9 0.5 5 0.6 2.1 1.7 3.7 2.6 3.7 0.9 0 1.5-0.9 1.5-2.5 0-1.4-0.4-3.6-1-5-0.6-1.4-1.5-2.5-2-2.5-0.6 0-1.3 0.6-1.6 1.3z"/>
		<path id="Path 69" class="s1" d="m141.2 111.6c-0.1 0.5 1.1 2.4 2.8 4.2 1.6 1.7 3.8 3.2 4.8 3.2 1.3 0 1-0.6-1.3-2.8-1.7-1.5-3.7-3.3-4.5-4.1-0.9-0.7-1.6-1-1.8-0.5z"/>
		<path id="Path 70" class="s1" d="m102.5 116c-0.3 0.5 0.6 3 2 5.5 1.4 2.5 2.9 4.5 3.5 4.5 0.6 0 1-0.5 1-1 0-0.5-0.4-1.8-0.9-2.8-0.5-0.9-1.4-2.9-2-4.5-0.6-1.5-1.5-2.7-2.1-2.7-0.5 0-1.1 0.5-1.5 1z"/>
		<path id="Path 71" class="s1" d="m149 121c0 0.5 1 2.5 2.3 4.3 1.2 1.7 6.1 7 10.9 11.7 4.8 4.7 8.8 9.2 8.7 10 0 0.8 0.7 2.2 1.6 3 0.9 0.8 1.6 2.1 1.5 2.8 0 0.6 0.9 1.2 2 1.2 1.9 0 2-0.1 0.3-3.2-1-1.8-2.3-3.7-2.9-4.3-0.6-0.5-3.3-3.8-6-7.3-2.7-3.4-5.2-6.3-5.6-6.2-0.5 0-3-2.9-5.8-6.5-2.8-3.6-5.4-6.5-6-6.5-0.6 0-1 0.5-1 1z"/>
		<path id="Path 72" class="s1" d="m9.2 127.7c0.9 2 1.7 3.8 1.7 4.2 0 0.3 0.6 0.1 1.2-0.4 0.6-0.5 0.9-2.1 0.6-3.5-0.3-1.5-1.5-2.8-2.8-3.1-2.3-0.7-2.3-0.7-0.7 2.8z"/>
		<path id="Path 73" class="s1" d="m74 128c0 0.5 1 2.4 2.3 4 1.2 1.7 2.8 3 3.5 3 0.6 0 1.2-0.2 1.2-0.5 0-0.3-0.8-1.7-1.7-3.3-1-1.5-2.2-3-2.8-3.4-0.5-0.4-1.3-0.8-1.8-0.8-0.4 0-0.7 0.5-0.7 1z"/>
		<path id="Path 74" class="s3" d="m164.5 135c0.5 0.8 2.4 3.5 4.4 6 1.9 2.5 3.9 5 4.3 5.5 0.5 0.6 0.8 0.4 0.9-0.5 0-0.8-2.3-4-5.2-7-2.8-3-4.8-4.8-4.4-4z"/>
		<path id="Path 75" class="s1" d="m115.4 139.7c-0.4 0.4-0.7 1.2-0.6 2 0.1 0.7 1.1 1.3 2.2 1.3 1.1 0 2-0.6 2-1.4-0.1-0.8-0.7-1.6-1.5-1.9-0.8-0.3-1.7-0.3-2.1 0z"/>
		<path id="Path 76" class="s1" d="m16 141.5c0 0.8 0.8 1.7 1.8 2 0.9 0.3 1.9 0.3 2.2 0 0.3-0.3 0.2-1.2-0.3-2-0.4-0.8-1.4-1.5-2.2-1.5-0.8 0-1.5 0.7-1.5 1.5z"/>
		<path id="Path 77" class="s1" d="m84.7 140.8c-0.4 0.4 0 1.8 0.8 3.2 0.7 1.4 2.5 3.6 4 5 1.4 1.4 3.3 3.3 4.3 4.3 0.9 1 2.6 2.9 3.7 4.1 1.1 1.3 3.1 2.5 4.5 2.7 1.4 0.2 2.8 0.9 3.2 1.4 0.5 0.6 0.8 0.4 0.8-0.5 0-0.8-2.3-2.9-5.2-4.5-3.4-2-6.7-5.2-9.9-9.8-2.7-3.7-5-6.7-5.2-6.7-0.2 0-0.7 0.3-1 0.7z"/>
		<path id="Path 78" class="s3" d="m91.3 147.5c1.9 2.8 4.6 5.8 6.1 6.8 1.4 0.9 2.6 1.4 2.6 1 0-0.5-2.7-3.5-6.1-6.8l-6.1-6z"/>
		<path id="Path 79" class="s1" d="m120.9 150.7c1.4 2.9 3.2 5.3 3.8 5.3 0.7 0 1.3-0.8 1.3-1.7 0-1-0.9-3.2-1.9-4.8-1-1.6-2.7-3.3-3.8-3.6-1.8-0.5-1.7-0.2 0.6 4.8z"/>
		<path id="Path 80" class="s1" d="m19 147.5c0 0.8 0.9 2.2 2 3 1.1 0.8 1.8 2 1.5 2.5-0.3 0.5 0.4 1.7 1.5 2.5 1.1 0.8 2 2.3 2.1 3.3 0 0.9 1 3.5 2.2 5.6 1.2 2.2 2.8 4.1 3.4 4.3 0.7 0.2 1.3-0.5 1.3-1.4 0.1-1-0.6-2.5-1.5-3.3-0.9-0.8-1.6-2.3-1.5-3.2 0-1-0.7-2-1.5-2.3-0.8-0.3-1.6-1.4-1.6-2.4-0.1-1.1-0.7-2.6-1.3-3.3-0.6-0.7-1.7-2.5-2.4-4-0.6-1.6-1.9-2.8-2.7-2.8-0.8 0-1.5 0.7-1.5 1.5z"/>
		<path id="Path 81" class="s3" d="m23.2 155.6c-0.1 0.5 0.9 3 2.3 5.7 1.4 2.6 2.7 4.7 3 4.7 0.3 0 0.2-1-0.2-2.1-0.5-1.2-1.1-2.3-1.5-2.5-0.5-0.2-0.7-1.2-0.6-2.3 0.2-1-0.4-2.4-1.2-3.1-0.9-0.7-1.7-0.9-1.8-0.4z"/>
		<path id="Path 82" class="s1" d="m177.2 156.6c0.1 0.9 1.3 2.4 2.6 3.3 2.2 1.6 2.3 1.5 1.7-0.9-0.3-1.4-1.1-2.8-1.8-3.2-0.6-0.4-1.6-0.8-2-0.8-0.5 0-0.7 0.7-0.5 1.6z"/>
		<path id="Path 83" class="s1" d="m122.4 160c-1.8 1.9-1.8 2-0.1 2.7 1.2 0.5 2.2 0.3 2.8-0.7 0.5-0.8 0.9-2.1 0.9-2.8 0-0.6-0.4-1.2-0.9-1.2-0.4 0-1.7 0.9-2.7 2z"/>
		<path id="Path 84" class="s1" d="m180.3 172c0.2 5.6 0.5 7 1.7 6.8 0.8-0.2 1.9-1.4 2.4-2.8q0.9-2.5-0.2-6.8c-0.7-2.4-1.8-4.2-2.6-4.2-1.1 0-1.4 1.6-1.3 7z"/>
		<path id="Path 85" class="s1" d="m31 171.8c0 0.4 0.5 1.3 1.2 2 0.7 0.7 1.6 1.2 2 1.2 0.5 0 0.8-0.9 0.8-2q0-2-2-2c-1.1 0-2 0.3-2 0.7z"/>
		<path id="Path 86" class="s1" d="m179.1 183c-1.6 0.6-2.4 1.6-2.3 3 0.1 1.1 0.5 2 1 2 0.4 0.1 1.2-0.5 1.8-1.2 0.6-0.7 1.3-2.1 1.6-3 0.3-1 0.5-1.8 0.4-1.7 0 0-1.2 0.4-2.5 0.9z"/>
		<path id="Path 87" class="s3" d="m38 184.3c0 0.1 1.1 2.4 2.6 5.2 1.4 2.7 3.2 5.7 4 6.5 0.9 0.8 0.1-1.5-1.6-5.3-1.7-3.7-3.5-6.7-4-6.7-0.6 0-1 0.1-1 0.2z"/>
		<path id="Path 88" class="s1" d="m40.5 185.6c-0.3 0.2 1.2 3.6 3.3 7.5 2 4 4.3 7.3 5 7.5 0.6 0.2 1 1 0.6 1.7-0.3 0.6 0.3 2.2 1.3 3.5l1.8 2.3c0.3-3.6-0.3-5.2-1.1-5.8-0.8-0.7-1.2-1.8-0.9-2.3 0.3-0.5-0.2-1.6-1-2.2-0.9-0.7-1.5-2-1.5-2.8 0-0.8-0.6-2.2-1.5-3-0.8-0.8-1.7-2.5-2-3.7-0.3-1.3-1.2-2.5-2-2.7-0.8-0.3-1.7-0.3-2 0z"/>
		<path id="Path 89" class="s1" d="m175 191.2c-0.8 0.7-1.3 2.1-1.2 3.3 0.2 1.1-0.4 2.7-1.3 3.5-0.9 0.8-1.6 2.2-1.6 3 0.1 0.8-0.6 2.9-1.4 4.5-0.9 1.6-1.5 3.6-1.5 4.3 0 0.6 0.6 1.2 1.3 1.2 0.6 0 1.9-2 2.7-4.6 0.8-2.6 1.8-4.8 2.3-5 0.4-0.2 0.7-1.8 0.7-3.4 0-1.6 0.3-3 0.8-3 0.4 0 1.3-1.1 1.9-2.5 1.1-2 1.1-2.5 0-2.5-0.7 0-1.9 0.5-2.7 1.2z"/>
		<path id="Path 90" class="s1" d="m58 213.8c-0.1 0.4 0.9 2.1 2.2 3.7 1.2 1.6 2.9 3.5 3.8 4.2 0.8 0.7 1.9 1.3 2.5 1.3 0.6 0 0-1-1.3-2.3-1.3-1.3-2.3-3-2.3-3.8 0-0.8-0.7-1.9-1.7-2.6-0.9-0.7-2-1.3-2.5-1.3-0.4 0-0.7 0.3-0.7 0.7z"/>
		<path id="Path 91" class="s3" d="m63.2 222.2c0.2 0.9 3.2 4.6 6.8 8.3 3.6 3.6 6.6 6.3 6.7 6 0.2-0.3-1.6-2.6-4-5.2-2.4-2.7-5.6-6.2-7.1-7.8-1.8-1.9-2.6-2.4-2.4-1.3z"/>
		<path id="Path 92" class="s1" d="m162 230c-0.7 1.4-0.7 2.2 0.1 2.8 0.6 0.4 1.5 0 2-0.8 0.5-0.8 0.9-2.1 0.9-2.8 0-0.6-0.4-1.2-1-1.2-0.5 0-1.4 0.9-2 2z"/>
		<path id="Path 93" class="s1" d="m76 235.3c1 1.7 3.7 4.7 5.9 6.4 2.3 1.8 4.3 3.3 4.6 3.3 0.3 0 0.5-0.5 0.5-1 0-0.5-2.5-3.5-5.5-6.5-3-3-5.9-5.5-6.4-5.5-0.6 0-0.1 1.5 0.9 3.2z"/>
		<path id="Path 94" class="s3" d="m81.2 241.7c-0.1 0.4 0.8 1.7 2 2.7 1.3 1.1 6 5.6 10.5 10 4.6 4.5 8.5 7.8 8.8 7.4 0.3-0.5-3-4.1-7.3-8.2-4.2-4-9.1-8.6-10.8-10.1-1.7-1.5-3.1-2.3-3.2-1.8z"/>
		<path id="Path 95" class="s1" d="m157.2 243.8c-1.6 1.5-1.9 2.6-1.2 3.4 0.8 1 1.3 1 2.6-0.2 0.8-0.8 1.4-2.4 1.2-3.5-0.3-1.9-0.4-1.9-2.6 0.2z"/>
		<path id="Path 96" class="s1" d="m153 252.2c-0.8 0.7-1.3 2.6-1.2 4.3 0.2 1.7-0.4 3.6-1.3 4.5-0.9 0.8-1.6 2.3-1.5 3.3 0 0.9 0.7 1.7 1.5 1.7 0.8 0 1.9-0.9 2.5-2 0.6-1.1 0.8-2.7 0.5-3.5-0.3-0.8 0.4-2.5 1.5-3.7 1.2-1.3 1.9-2.9 1.8-3.7-0.2-0.8-0.8-1.6-1.4-1.8-0.5-0.2-1.6 0.2-2.4 0.9z"/>
		<path id="Path 97" class="s1" d="m103.2 259.9c-0.2 1.5 0.8 2.6 3.7 3.9 3.6 1.6 3.8 1.6 3.2-0.1-0.3-1-2-2.7-3.7-3.8l-3.1-2.1z"/>
		<path id="Path 98" class="s1" d="m112.1 265c-0.1 0.5 0.1 1.7 0.4 2.5 0.3 0.8 1.3 1.5 2.3 1.5 0.9 0 3.2 1.4 5 3 1.7 1.7 3.9 2.8 4.7 2.5 1-0.3 1.2-1.1 0.8-2.1q-0.8-1.6-3-1c-1.3 0.3-2.3 0.1-2.3-0.4 0-0.5-1-1.9-2.2-3.1-1.3-1.1-3.1-2.5-4-3q-1.7-1-1.7 0.1z"/>
		<path id="Path 99" class="s1" d="m133 278.5c0 0.8 0.9 2 2 2.5 1.1 0.5 2.8 1 3.8 1 0.9 0 2.6-0.6 3.7-1.4 1.1-0.8 1.8-1.6 1.5-1.9-0.3-0.2-2.8-0.7-5.7-1.1-4.3-0.6-5.2-0.4-5.3 0.9z"/>
		<path id="Path 100" class="s2" d="m75.2 482.3c2.2 1.9 3.8 4.1 3.8 5.4 0 1.3 0.7 2.5 1.5 2.8 0.8 0.3 1.5 1.6 1.5 3 0 1.4 0.7 2.7 1.5 3 0.8 0.3 1.5 1.1 1.5 1.7-0.1 0.7 0.6 2 1.5 2.8 1.2 1.2 1.6 3.6 1.5 11.2 0 7.8-0.3 9.9-1.5 10.3-0.8 0.3-1.5 1-1.5 1.5 0 0.5 1.8 1 4 1h4c0-21.8-0.3-24.1-1.5-24.5-0.8-0.3-1.5-1.2-1.5-2 0-0.8-0.7-1.5-1.5-1.5-0.9 0-1.5-0.9-1.5-2.3 0-1.2-0.9-3-2-4-1.1-0.9-2-2.4-2-3.2 0-0.8-0.7-2.2-1.6-3-1-0.9-1.4-2.2-1-3.5 0.5-1.8 0.2-2-4.2-2h-4.7z"/>
		<path id="Path 101" class="s2" d="m213 481c0 1.1 0.7 2.2 1.5 2.5 0.8 0.3 1.5 1.1 1.5 1.8 0 0.6 1.3 2.1 2.9 3.2 1.7 1.1 3.8 3.8 4.8 6 0.9 2.2 3.9 6.1 6.5 8.8 2.6 2.6 4.8 5.4 4.8 6.2 0 0.8 2 3.4 4.5 5.7 3.3 3.1 4.6 5.1 4.5 7 0 1.6 0.4 2.8 1 2.8 0.6 0 1-1.9 1-4.3 0-3.4-0.5-4.8-3-7.2-1.7-1.7-3-3.6-3-4.3 0-0.6-2.2-3.5-5-6.2-2.7-2.8-5-5.8-5-6.8-0.1-0.9-2.2-3.7-4.8-6.2-2.6-2.5-5.4-6-6.2-7.8-1.1-2.2-2.2-3.2-3.7-3.2-1.6 0-2.3 0.6-2.3 2z"/>
		<path id="Path 102" class="s2" d="m322 499.8c0 11.4 0.2 21.7 0.5 22.9 0.3 1.6 1.2 2.3 2.8 2.3h2.2v-46h-5.5z"/>
		<path id="Path 103" class="s2" d="m377.5 480.6c-1.9 1.4-2 2.5-1.8 21.2 0.2 10.8 0.3 20.5 0.3 21.4 0 1.4 0.9 1.8 4 1.8 2.2 0 4-0.5 4-1 0-0.5-0.9-1.5-2-2-1.9-0.9-2-2-2-20.3-0.1-18.9-0.1-19.2 2.2-20.9l2.3-1.7c-3.9 0-5.9 0.6-7 1.5z"/>
		<path id="Path 104" class="s2" d="m433 480.2c-1.1 1-1.4 5.4-1.2 23l0.2 21.8h5c0.1-41.1 0.3-43.6 1.8-44.7 1.5-1.1 1.3-1.2-1.3-1.3-1.7 0-3.7 0.5-4.5 1.2z"/>
		<path id="Path 105" class="s2" d="m451 502v23h5l-0.1-46h-4.9z"/>
		<path id="Path 106" class="s2" d="m517.8 481c2.1 1.9 2.2 2.6 2.2 20.5 0 17.3-0.1 18.6-2 20.3-1.1 0.9-2 2-2 2.4 0 0.5 2 0.8 4.5 0.8h4.5c-3.5-5.7-3.9-8.3-4-14.3 0-6 0.3-7.8 1.5-8.2 1.3-0.4 1.3-0.7 0-2-1.1-1.1-1.5-3.8-1.5-10 0-6.4 0.4-8.9 1.6-10 1.4-1.3 1.1-1.5-2.8-1.5h-4.3z"/>
		<path id="Path 107" class="s2" d="m571.2 481c-1 1.6-0.9 2.3 0.3 3.5 0.8 0.8 1.5 2.1 1.5 2.8-0.1 0.6 0.6 1.9 1.5 2.7 0.9 0.8 1.6 2.5 1.5 3.8 0 1.2 0.7 2.4 1.5 2.7 0.9 0.3 1.5 1.7 1.5 3.3-0.1 1.5 0.6 3.4 1.5 4.2 0.9 0.8 1.6 3 1.5 4.8 0 2.2 0.5 3.2 1.5 3.2 1 0 1.5 1 1.5 2.8-0.1 1.5 0.6 3.4 1.5 4.2 0.9 0.8 1.6 2.5 1.5 3.8 0 1.7 0.6 2.2 2.5 2.2 1.6 0 2.5-0.6 2.5-1.5 0-0.8-0.7-1.7-1.5-2-0.9-0.3-1.5-1.7-1.5-3.3 0.1-1.5-0.6-3.4-1.5-4.2-0.9-0.8-1.6-2.7-1.5-4.3 0-1.5-0.6-2.9-1.5-3.2-0.8-0.3-1.5-1.5-1.5-2.8 0.1-1.2-0.6-2.9-1.5-3.7-0.8-0.8-1.7-3.2-2-5.3-0.3-2.1-1.2-3.9-2-4.2q-1.5-0.5-1-3c0.4-1.8 0-2.8-1.5-3.5-1.1-0.5-2-1.9-2-3 0-1.1-0.4-2-0.8-2-0.4 0-1.3 0.9-2 2z"/>
		<path id="Path 108" class="s2" d="m601 481c0 1.1 2 3.9 4.4 6.3 2.4 2.3 5.2 5.8 6.2 7.7 1.1 1.9 3.8 5.4 6.2 7.8 2.3 2.3 4.2 5 4.2 6 0 0.9 2.2 3.7 5 6.2 3.7 3.3 5 5.2 5 7.3 0 1.5 0.5 2.7 1 2.7 0.5 0 1-1.7 1-3.8 0-2.8-0.7-4.4-2.9-6.7-1.7-1.7-3.1-3.8-3.1-4.8 0-0.9-2.3-3.8-5-6.5-2.8-2.6-5-5.4-5-6.2 0-0.8-2.7-4.3-6-7.8-3.3-3.4-6-7.1-6-8.2 0-1.5-0.7-2-2.5-2-1.8 0-2.5 0.5-2.5 2z"/>
		<path id="Path 109" class="s2" d="m657 500c0 17.8-0.2 21.1-1.5 21.5-0.8 0.3-1.5 1.2-1.5 2 0 1.1 1.1 1.5 4 1.5h4v-46h-5z"/>
		<path id="Path 110" class="s2" d="m788 502v23c5.2 0 5.9-0.4 5.5-1.5-0.3-0.8-0.5-11.2-0.5-23v-21.5h-5z"/>
		<path id="Path 111" class="s2" d="m852.2 481c-1 1.6-0.9 2.2 0.3 3.3 0.9 0.6 1.6 2 1.5 3 0 0.9 0.7 1.9 1.5 2.2 0.9 0.3 1.5 1.7 1.5 3.5 0 1.8 0.6 3.2 1.5 3.5 0.9 0.3 1.5 1.7 1.5 3.3-0.1 1.5 0.6 3.4 1.5 4.2 0.9 0.8 1.6 2.7 1.5 4.3 0 1.5 0.6 2.9 1.5 3.2 0.9 0.3 1.5 1.7 1.5 3.5 0 1.8 0.6 3.2 1.5 3.5 0.9 0.3 1.5 1.7 1.5 3.5 0 2.5 0.4 3 2.5 3 1.4 0 2.5-0.6 2.5-1.3 0.1-0.6-0.6-1.9-1.5-2.7-0.9-0.8-1.6-2.7-1.5-4.3 0-1.5-0.6-2.9-1.5-3.2-0.9-0.3-1.5-1.7-1.5-3.5 0-1.8-0.6-3.2-1.5-3.5-0.9-0.3-1.5-1.7-1.5-3.5 0-1.8-0.6-3.2-1.5-3.5-1-0.3-1.5-1.8-1.5-4 0-2.2-0.5-3.7-1.5-4-0.9-0.3-1.5-1.7-1.5-3.5 0-1.8-0.6-3.2-1.5-3.5-0.8-0.3-1.5-1.6-1.5-3 0-1.4-0.6-2.5-1.3-2.5-0.7 0-1.8 0.9-2.5 2z"/>
		<path id="Path 112" class="s2" d="m919.8 500c0.2 20.1 0.1 21-1.8 22-1.1 0.5-2 1.5-2 2 0 0.5 1.8 1 4 1h4c0-29.8 0.4-40.2 0.8-42.3 0.7-3.7 0.6-3.7-2.3-3.7h-3z"/>
		<path id="Path 113" class="s2" d="m936.3 480c1.5 0.9 1.7 3 1.7 21.5 0 17.3-0.2 20.6-1.5 21-0.8 0.3-1.5 1-1.5 1.5 0 0.5 1.8 1 4 1h4v-46c-7.5 0.1-8.1 0.3-6.7 1z"/>
		<path id="Path 114" class="s2" d="m976 480c0 0.5 0.7 1.2 1.5 1.5 1.3 0.4 1.5 3.6 1.5 20 0 16.6-0.2 19.6-1.5 20.3-0.9 0.4-1.8 1.3-2 1.9-0.4 0.9 0.8 1.3 4 1.3 3.3 0 4.5-0.4 4.5-1.5 0-0.8-0.7-1.7-1.5-2-1.2-0.4-1.5-2.4-1.5-10 0-6.9 0.3-9.5 1.3-9.5 0.9 0 0.9-0.2-0.1-1.2-0.8-0.9-1.2-4.4-1.2-10.3 0-5.7 0.4-9.5 1.2-10.3 1-0.9 0.4-1.2-2.5-1.2-2 0-3.7 0.5-3.7 1z"/>
		<path id="Path 115" class="s2" d="m1017.8 480.8c2.3 1.7 2.3 2 2.2 20.9 0 18.3-0.1 19.4-2 20.3-1.1 0.5-2 1.5-2 2 0 0.5 2 1 4.5 1 2.5 0 4.5-0.5 4.5-1 0-0.5-0.8-1.8-1.7-2.7-1.6-1.5-1.8-3.8-1.8-19.8 0-16 0.2-18.3 1.8-19.8 0.9-0.9 1.7-1.9 1.7-2.2 0-0.3-2.1-0.5-4.7-0.4-4.8 0-4.8 0-2.5 1.7z"/>
		<path id="Path 116" class="s2" d="m1098 482.3c-0.1 1.7 0.6 3.9 1.5 4.7 0.9 0.8 1.6 2.5 1.5 3.7 0 1.3 0.7 2.5 1.5 2.8 0.8 0.3 1.5 1.5 1.5 2.7-0.1 1.3 0.6 3 1.5 3.8 0.9 0.8 1.6 3 1.5 4.7 0 2.1 0.6 3.5 1.5 3.8 0.9 0.3 1.5 1.7 1.5 3.5 0 1.8 0.6 3.2 1.5 3.5 1 0.3 1.5 1.9 1.5 5v4.5c7 0 9-0.1 9-0.3 0-0.1-1.5-2-3.5-4.2-2.5-2.8-3.5-5-3.5-7.3 0-1.9-0.6-3.4-1.5-3.7-0.9-0.3-1.5-1.7-1.5-3.5q0-3-1.5-3-1.5 0-1.5-3c0-1.7-0.7-3.7-1.5-4.5-0.8-0.8-1.5-2.8-1.5-4.5 0-1.8-0.6-3.2-1.5-3.5-0.8-0.3-1.5-1.5-1.5-2.8 0.1-1.2-0.7-3-1.7-3.9-1-1-2.1-1.8-2.5-1.8-0.5 0-0.8 1.5-0.8 3.2z"/>
		<path id="Path 117" class="s2" d="m114.7 491c-1.2 2.2-1.7 5.3-1.7 11 0 6.3 0.4 8.4 1.7 9.8 1 1 3.5 3.7 5.5 6 2.1 2.3 4.2 4.2 4.8 4.2 0.6 0 1 0.7 1 1.5 0 1.1 1.1 1.5 4 1.5 2.7 0 3.9-0.4 3.7-1.3-0.2-0.6-1.3-1.3-2.5-1.5-1.2-0.1-4-2-6.2-4.2-2.2-2.2-4-4.9-4-6 0-1.1-0.7-2.2-1.5-2.5-1.2-0.4-1.5-2.6-1.5-11 0-5.8-0.4-10.5-0.8-10.5-0.4 0-1.5 1.3-2.5 3z"/>
		<path id="Path 118" class="s2" d="m260 491.8c0 1.2-0.7 2.4-1.5 2.7-1.1 0.4-1.5 2.1-1.5 7 0 4.9 0.4 6.6 1.5 7 0.8 0.3 1.5 1.6 1.5 3 0 1.7 1.4 3.8 4.1 6.2 2.3 2.1 5 4.6 6 5.5 1 1 3 1.8 4.4 1.8 1.5 0 2.4-0.5 2.2-1.3-0.2-0.6-1.2-1.4-2.3-1.6-1-0.2-3.6-2-5.6-4-2-2-3.7-4.6-3.8-5.9 0-1.2-0.7-2.4-1.5-2.7-1.2-0.4-1.5-2.3-1.5-8.8 0-4.5-0.5-8.9-1-9.7-0.8-1.2-1-1.1-1 0.7z"/>
		<path id="Path 119" class="s2" d="m469.5 492.3c-0.5 1.5-1.6 3-2.3 3.2-0.8 0.3-1.2 2.6-1.2 6.5 0 4.4 0.4 6.1 1.5 6.5 0.8 0.3 1.5 1.7 1.6 3.2 0 2.1 1.2 3.7 4.5 6.3 2.5 1.9 5.4 4.3 6.4 5.2 1.1 1 3.1 1.8 4.5 1.8 1.5 0 2.4-0.5 2.2-1.3-0.2-0.6-1.2-1.3-2.3-1.4-1-0.2-3.8-2.1-6.2-4.3-2.3-2.2-4.2-4.9-4.2-6 0-1.1-0.7-2.3-1.5-2.8-1-0.5-1.5-3.1-1.7-10.2-0.2-7.7-0.5-9-1.3-6.7z"/>
		<path id="Path 120" class="s2" d="m535 504c0 0.5 0.7 1.2 1.5 1.5 0.8 0.3 1.5 1.6 1.5 3 0 1.4 0.7 2.7 1.5 3 0.9 0.3 1.5 1.7 1.5 3.5 0 1.8 0.6 3.2 1.5 3.5 0.9 0.3 1.5 1.7 1.5 3.5 0 2.7 0.3 3 3 3 1.6 0 3-0.5 3-1 0-0.5-0.9-1.5-2-2-1.1-0.6-2-2-2-3.3 0.1-1.2-0.6-2.9-1.5-3.7-0.9-0.8-1.6-2.7-1.5-4.3 0-1.5-1-3.8-2.3-5.2-1.2-1.3-3-2.4-4-2.5-0.9 0-1.7 0.5-1.7 1z"/>
		<path id="Path 121" class="s2" d="m994.5 504c-0.3 0.5 0.4 1.5 1.5 2 1.2 0.6 2 2 2 3.5 0 1.4 0.7 2.7 1.5 3 0.8 0.3 1.5 1.5 1.5 2.8-0.1 1.2 0.6 2.9 1.5 3.7 0.9 0.8 1.6 2.5 1.5 3.8 0 1.7 0.6 2.2 2.5 2.2 1.4 0 2.5-0.5 2.5-1 0-0.5-0.7-1.2-1.5-1.5-0.9-0.3-1.5-1.7-1.5-3.5 0-1.8-0.6-3.2-1.5-3.5-0.9-0.3-1.7-2.2-2-4.5-0.3-2.2-1-4-1.5-4-0.5 0-1.2-0.9-1.5-2-0.3-1.1-1.3-2-2.5-2-1 0-2.1 0.5-2.5 1z"/>
		<path id="Path 122" class="s2" d="m682 518.5c0 1.6 0.6 2.5 1.5 2.5 0.8 0 1.7 0.9 2 2q0.5 2 3 2c1.4 0 2.5-0.5 2.5-1 0-0.5-0.8-1.2-1.8-1.5-0.9-0.3-2.6-1.9-3.7-3.5-1.1-1.7-2.3-3-2.8-3-0.4 0-0.7 1.1-0.7 2.5z"/>
		<path id="Path 123" class="s2" d="m1071.3 519c-1 1.6-2.6 3.2-3.5 3.5-1 0.3-1.8 1-1.8 1.5 0 0.5 1.1 1 2.5 1 1.8 0 2.5-0.5 2.5-2 0-1.2 0.8-2.2 2-2.5 1.1-0.3 2-1.1 2.1-1.9 0.1-0.8-0.4-1.7-0.9-2.1-0.6-0.3-1.9 0.8-2.9 2.5z"/>
		<path id="Path 124" class="s2" d="m394.5 521.3c-0.2 1.2-0.5 2.5-0.5 3 0 0.4 1.1 0.7 2.5 0.7 1.4 0 2.5-0.4 2.5-1 0-0.5-0.9-1.9-2-2.9-1.9-1.9-2-1.9-2.5 0.2z"/>
		<path id="Path 125" class="s2" d="m882 522q0 3 1.5 3c0.9 0 1.3-0.6 1-1.5-0.3-0.8-0.5-2.2-0.5-3 0-0.8-0.5-1.5-1-1.5-0.5 0-1 1.3-1 3z"/>
		<path id="Path 126" class="s2" d="m966.1 520.8c-0.5 0.9-2 1.7-3.3 1.8-1.3 0.1-2.4 0.6-2.6 1.2-0.1 0.8 1.3 1.2 3.8 1.2 3.8 0 4-0.2 4-3 0-1.7-0.2-3-0.5-3-0.2 0-0.9 0.8-1.4 1.8z"/>
		<path id="Path 127" class="s2" d="m601 522.5c0 2 0.5 2.5 2.5 2.5 1.4 0 2.5-0.4 2.5-0.9 0.1-0.5-1-1.6-2.4-2.5-2.5-1.6-2.5-1.6-2.6 0.9z"/>
		<path id="Path 128" class="s2" d="m1080.8 521.8c-1 0.9-1.8 2-1.8 2.5 0 0.4 1.1 0.7 2.5 0.7 2 0 2.5-0.5 2.5-2.5 0-1.4-0.3-2.5-0.7-2.4-0.5 0-1.6 0.8-2.5 1.7z"/>
		<path id="Path 129" class="s2" d="m213 523c0 1.5 0.7 2 2.5 2 1.4 0 2.5-0.5 2.5-1 0-0.5-0.9-1.5-2-2-1.1-0.5-2.2-1-2.5-1-0.3 0-0.5 0.9-0.5 2z"/>
		<path id="Path 130" class="s2" d="m338 523.5c0 0.9 0.9 1.5 2.5 1.5 1.6 0 2.5-0.6 2.5-1.5 0-0.9-0.9-1.5-2.5-1.5-1.6 0-2.5 0.6-2.5 1.5z"/>
		<path id="Path 131" class="s2" d="m747.1 523.4c-0.1 1.1 0.8 1.6 2.9 1.6 1.9 0 2.9-0.5 2.7-1.2-0.2-0.7-1.5-1.4-3-1.6-1.8-0.2-2.6 0.1-2.6 1.2z"/>
		<path id="Path 132" class="s2" d="m1047.5 522.7c-0.5 0.3-0.8 1-0.7 1.5 0.1 0.4 1.3 0.8 2.7 0.8 1.6 0 2.5-0.6 2.5-1.5 0-0.8-0.8-1.5-1.8-1.5-1 0-2.2 0.3-2.7 0.7z"/>
	</g>
</svg>